<svg width="40" height="40" viewBox="0 0 40 40" fill="none" xmlns="http://www.w3.org/2000/svg">
<path d="M39.8026 19.7045L29.6082 9.31319L37.8024 0.960609L36.8599 0L28.1941 8.8325C28.0692 8.95989 27.999 9.13266 27.999 9.31281C27.999 9.49295 28.0692 9.66572 28.1941 9.79311L28.3898 9.99172L25.7223 12.7105H22.7129C21.7958 12.7101 20.8817 12.8156 19.9879 13.025C19.1024 12.8168 18.1966 12.7113 17.2878 12.7105H14.2754L11.6087 9.9925L11.8043 9.79389C11.9293 9.66649 11.9995 9.49373 11.9995 9.31358C11.9995 9.13344 11.9293 8.96067 11.8043 8.83328L3.13784 0L2.19537 0.960609L10.388 9.31319L0.195172 19.7045C0.0702043 19.8319 0 20.0046 0 20.1848C0 20.3649 0.0702043 20.5377 0.195172 20.6651L2.19537 22.7038C2.32035 22.8311 2.48986 22.9027 2.66661 22.9027C2.84335 22.9027 3.01286 22.8311 3.13784 22.7038L4.66642 21.1419L5.91901 22.4186C6.15675 22.6596 6.34524 22.9462 6.47356 23.2619C6.60189 23.5776 6.66751 23.9162 6.66662 24.2579C6.66519 24.778 6.76497 25.2933 6.9602 25.7739C7.15542 26.2545 7.4422 26.6909 7.80396 27.0578L8.39386 27.6591C8.05446 28.0472 7.8733 28.5527 7.88739 29.0724C7.90148 29.5921 8.10977 30.0867 8.46968 30.4551L9.25065 31.2511C9.59916 31.6058 10.0644 31.8162 10.5563 31.8415C10.5813 32.343 10.788 32.8172 11.1364 33.1723L11.9173 33.9683C12.2658 34.3231 12.7311 34.5334 13.223 34.5587C13.248 35.0602 13.4547 35.5344 13.803 35.8895L14.584 36.6855C14.9325 37.0403 15.3977 37.2507 15.8897 37.276C15.9147 37.7775 16.1214 38.2517 16.4697 38.6068L17.2507 39.4027C17.6119 39.7714 18.0981 39.9848 18.6091 39.9992C19.1201 40.0136 19.6171 39.8278 19.9977 39.48C20.3784 39.8278 20.8754 40.0136 21.3864 39.9992C21.8974 39.9848 22.3835 39.7714 22.7448 39.4027L23.5257 38.6068C23.8739 38.2523 24.0811 37.7791 24.1073 37.2783C24.5987 37.2516 25.063 37.0404 25.4107 36.6855L26.1917 35.8895C26.5399 35.5351 26.747 35.0619 26.7732 34.5611C27.2646 34.5344 27.7289 34.3232 28.0766 33.9683L28.8576 33.1723C29.2058 32.8179 29.4129 32.3447 29.4391 31.8438C29.9305 31.8171 30.3948 31.606 30.7425 31.2511L31.5235 30.4551C31.8834 30.0867 32.0917 29.5921 32.1058 29.0724C32.1199 28.5527 31.9387 28.0472 31.5993 27.6591L32.1892 27.0578C32.551 26.6909 32.8378 26.2545 33.033 25.7739C33.2282 25.2933 33.328 24.778 33.3266 24.2579C33.3257 23.9162 33.3913 23.5776 33.5196 23.2619C33.6479 22.9462 33.8364 22.6596 34.0742 22.4186L35.3336 21.1419L36.8622 22.6999C36.9871 22.8273 37.1567 22.8988 37.3334 22.8988C37.5101 22.8988 37.6796 22.8273 37.8046 22.6999L39.8048 20.6612C39.9298 20.5338 40 20.3611 40 20.1809C40 20.0008 39.9298 19.828 39.8048 19.7006L39.8026 19.7045ZM2.66698 21.2625L1.61002 20.1852L10.6663 10.9539L11.7232 12.0312L2.66698 21.2625ZM9.41518 29.4983C9.2904 29.3709 9.22033 29.1981 9.22033 29.018C9.22033 28.838 9.2904 28.6652 9.41518 28.5377L12.1948 25.7015C12.3199 25.5743 12.4894 25.5029 12.6661 25.5029C12.8428 25.5029 13.0122 25.5743 13.1373 25.7015L13.9183 26.4975C14.0431 26.625 14.1131 26.7977 14.1131 26.9778C14.1131 27.1579 14.0431 27.3306 13.9183 27.4581L11.1371 30.2928C11.012 30.42 10.8426 30.4914 10.6659 30.4914C10.4892 30.4914 10.3197 30.42 10.1946 30.2928L9.41518 29.4983ZM12.0819 32.2163C11.9571 32.0888 11.887 31.9161 11.887 31.736C11.887 31.556 11.9571 31.3832 12.0819 31.2557L15.5295 27.7417C15.6546 27.6146 15.8241 27.5431 16.0007 27.5431C16.1774 27.5431 16.3469 27.6146 16.472 27.7417L17.253 28.5377C17.3777 28.6652 17.4478 28.838 17.4478 29.018C17.4478 29.1981 17.3777 29.3709 17.253 29.4983L13.8053 33.0123C13.6802 33.1395 13.5107 33.2109 13.3341 33.2109C13.1574 33.2109 12.9879 33.1395 12.8628 33.0123L12.0819 32.2163ZM14.7485 34.9343C14.6238 34.8068 14.5537 34.6341 14.5537 34.454C14.5537 34.2739 14.6238 34.1012 14.7485 33.9737L17.5297 31.139C17.6548 31.0119 17.8243 30.9404 18.0009 30.9404C18.1776 30.9404 18.3471 31.0119 18.4722 31.139L19.2531 31.935C19.3779 32.0625 19.448 32.2353 19.448 32.4153C19.448 32.5954 19.3779 32.7682 19.2531 32.8956L16.472 35.7303C16.3469 35.8575 16.1774 35.9289 16.0007 35.9289C15.8241 35.9289 15.6546 35.8575 15.5295 35.7303L14.7485 34.9343ZM18.1977 38.4475L17.4167 37.6516C17.2919 37.5241 17.2219 37.3513 17.2219 37.1712C17.2219 36.9912 17.2919 36.8184 17.4167 36.6909L20.1979 33.8563C20.323 33.7291 20.4925 33.6576 20.6691 33.6576C20.8458 33.6576 21.0153 33.7291 21.1404 33.8563L21.9213 34.6523C22.0461 34.7797 22.1162 34.9525 22.1162 35.1326C22.1162 35.3126 22.0461 35.4854 21.9213 35.6129L19.1402 38.4475C19.0151 38.5747 18.8456 38.6462 18.6689 38.6462C18.4923 38.6462 18.3228 38.5747 18.1977 38.4475ZM22.5878 37.6516L21.8068 38.4475C21.6962 38.561 21.5498 38.631 21.3934 38.6452C21.2371 38.6593 21.0808 38.6167 20.9523 38.5248L22.6614 36.7829C22.7515 36.9139 22.7933 37.0731 22.7795 37.2325C22.7656 37.3919 22.6969 37.5411 22.5855 37.6539L22.5878 37.6516ZM30.5871 29.4983L29.8061 30.2943C29.6811 30.4217 29.5116 30.4933 29.3349 30.4933C29.1581 30.4933 28.9886 30.4217 28.8636 30.2943L28.4732 29.8963L23.807 25.1404L22.8608 26.1011L27.5239 30.857L27.9143 31.255C28.0391 31.3825 28.1092 31.5552 28.1092 31.7353C28.1092 31.9153 28.0391 32.0881 27.9143 32.2156L27.1334 33.0116C27.0083 33.1387 26.8388 33.2102 26.6621 33.2102C26.4855 33.2102 26.316 33.1387 26.1909 33.0116L25.8004 32.6136L21.1373 27.8577L20.1949 28.8183L24.861 33.5742L25.2515 33.9722C25.3762 34.0997 25.4463 34.2724 25.4463 34.4525C25.4463 34.6326 25.3762 34.8053 25.2515 34.9328L24.4705 35.7288C24.3454 35.856 24.1759 35.9274 23.9993 35.9274C23.8226 35.9274 23.6531 35.856 23.528 35.7288L23.3931 35.5912C23.4702 35.2545 23.462 34.9032 23.3692 34.5706C23.2763 34.238 23.1019 33.935 22.8623 33.6901L22.0813 32.8941C21.7329 32.5391 21.2677 32.3284 20.7757 32.3029C20.7506 31.8014 20.544 31.3272 20.1956 30.9721L19.4146 30.1761C19.2031 29.9608 18.9464 29.797 18.664 29.697C18.7904 29.3347 18.8137 28.9433 18.7312 28.5681C18.6487 28.1928 18.4637 27.849 18.1977 27.5764L17.4129 26.7834C17.1455 26.5116 16.8081 26.3225 16.4396 26.238C16.0711 26.1535 15.6867 26.177 15.3309 26.3059C15.2327 26.018 15.072 25.7564 14.8608 25.5408L14.0798 24.7448C13.7044 24.3632 13.1959 24.1489 12.6657 24.1489C12.1355 24.1489 11.627 24.3632 11.2516 24.7448L9.33254 26.7008L8.74643 26.1034C8.50869 25.8624 8.3202 25.5758 8.19187 25.26C8.06355 24.9443 7.99793 24.6058 7.99882 24.2641C8.00025 23.7439 7.90046 23.2286 7.70524 22.748C7.51002 22.2674 7.22324 21.8311 6.86148 21.4642L5.61117 20.1844L12.6627 12.9918L13.5248 13.8705C13.5867 13.9335 13.6603 13.9835 13.7412 14.0176C13.8221 14.0517 13.9088 14.0692 13.9964 14.0691H17.19C16.0829 14.6539 15.0713 15.4099 14.1912 16.3103C13.7206 16.7998 13.4585 17.4588 13.4619 18.1441C13.4653 18.8295 13.7339 19.4858 14.2094 19.9704C14.6848 20.455 15.3287 20.7288 16.0012 20.7322C16.6736 20.7357 17.3201 20.4686 17.8004 19.9889L19.9992 17.7477L30.1936 28.139L30.5841 28.537C30.709 28.6644 30.7792 28.8371 30.7792 29.0173C30.7792 29.1974 30.709 29.3702 30.5841 29.4976L30.5871 29.4983ZM33.1393 21.4611C32.7775 21.828 32.4907 22.2643 32.2955 22.7449C32.1003 23.2255 32.0005 23.7408 32.0019 24.261C32.0028 24.6027 31.9372 24.9412 31.8089 25.257C31.6806 25.5727 31.4921 25.8593 31.2543 26.1003L30.6682 26.6977L20.4724 16.3072C20.3474 16.1798 20.1779 16.1082 20.0011 16.1082C19.8244 16.1082 19.6549 16.1798 19.5299 16.3072L16.861 19.0244C16.7491 19.1456 16.6145 19.2426 16.4652 19.3098C16.3158 19.3769 16.1548 19.4129 15.9915 19.4154C15.8283 19.4179 15.6663 19.387 15.515 19.3245C15.3637 19.262 15.2263 19.1692 15.1108 19.0516C14.9954 18.9339 14.9043 18.7938 14.843 18.6396C14.7817 18.4855 14.7514 18.3203 14.7539 18.1539C14.7564 17.9876 14.7916 17.8234 14.8575 17.6712C14.9234 17.519 15.0186 17.3818 15.1375 17.2678C16.13 16.2507 17.3106 15.4444 18.6109 14.8954C19.9113 14.3465 21.3055 14.0659 22.7129 14.0699H25.9991C26.0867 14.0699 26.1734 14.0522 26.2544 14.018C26.3353 13.9838 26.4088 13.9337 26.4707 13.8705L27.3328 12.9918L34.3896 20.1844L33.1393 21.4611ZM37.3345 21.2625L28.2745 12.0312L29.3315 10.9539L38.3885 20.1844L37.3345 21.2625Z" fill="#292D32"/>
</svg>
