<svg id="vuesax_outline_archive" data-name="vuesax/outline/archive" xmlns="http://www.w3.org/2000/svg" width="23" height="23" viewBox="0 0 23 23">
  <g id="archive" transform="translate(0 0)">
    <path id="Vector" d="M12.219,12.727H3.594C.431,12.727,0,11,0,9.133V.719A.724.724,0,0,1,.719,0a.724.724,0,0,1,.719.719V9.133c0,1.668.287,2.156,2.156,2.156h8.625c1.869,0,2.156-.489,2.156-2.156V.719a.719.719,0,0,1,1.438,0V9.133C15.812,11,15.381,12.727,12.219,12.727Z" transform="translate(3.594 9.075)" fill="#292D32"/>
    <path id="Vector-2" d="M17.01,9.1H3.594A3.24,3.24,0,0,1,0,5.51V3.594A3.24,3.24,0,0,1,3.594,0H17.01A3.24,3.24,0,0,1,20.6,3.594V5.51A3.24,3.24,0,0,1,17.01,9.1ZM3.594,1.438c-1.514,0-2.156.642-2.156,2.156V5.51c0,1.514.642,2.156,2.156,2.156H17.01c1.514,0,2.156-.642,2.156-2.156V3.594c0-1.514-.642-2.156-2.156-2.156Z" transform="translate(1.198 1.198)" fill="#292D32"/>
    <path id="Vector-3" d="M4.207,1.438H.719A.724.724,0,0,1,0,.719.724.724,0,0,1,.719,0H4.207a.724.724,0,0,1,.719.719A.724.724,0,0,1,4.207,1.438Z" transform="translate(9.037 12.698)" fill="#292D32"/>
    <path id="Vector-4" d="M0,0H23V23H0Z" fill="none" opacity="0"/>
  </g>
</svg>
