<svg xmlns="http://www.w3.org/2000/svg" xmlns:xlink="http://www.w3.org/1999/xlink" width="27" height="27.037" viewBox="0 0 27 27.037"><defs><linearGradient id="a" x1="0.5" x2="0.5" y2="1" gradientUnits="objectBoundingBox"><stop offset="0" stop-color="#a0ab00"/><stop offset="1" stop-color="#6f7618"/></linearGradient><linearGradient id="b" x1="0.5" x2="0.5" y2="1" gradientUnits="objectBoundingBox"><stop offset="0" stop-color="#4be500"/><stop offset="1" stop-color="#2abb00"/></linearGradient></defs><path d="M23.54,3.27H5.959A4.709,4.709,0,0,0,1.25,7.954V21.768A3.453,3.453,0,0,0,4.7,25.259H24.8a3.453,3.453,0,0,0,3.453-3.491V7.954A4.709,4.709,0,0,0,23.54,3.27Z" transform="translate(-1.25 -0.733)" fill="url(#a)"/><path d="M28.25,9.069l-27-.339V22.883A3.453,3.453,0,0,0,4.7,26.374H24.8a3.453,3.453,0,0,0,3.453-3.491Z" transform="translate(-1.25 0.663)" fill="url(#b)"/><path d="M6.692,6.876a.954.954,0,0,1-.942-.917V2.192a.942.942,0,1,1,1.884,0V5.959a.954.954,0,0,1-.942.917Zm6.907,0a.954.954,0,0,1-.942-.917V2.192a.942.942,0,0,1,1.884,0V5.959a.954.954,0,0,1-.942.917Zm6.907,0a.954.954,0,0,1-.942-.917V2.192a.942.942,0,0,1,1.884,0V5.959a.954.954,0,0,1-.942.917Z" transform="translate(-0.099 -1.25)" fill="#fff"/><g transform="translate(5.651 13.789)"><circle cx="1.57" cy="1.57" r="1.57" fill="#fff"/><circle cx="1.57" cy="1.57" r="1.57" transform="translate(6.279)" fill="#fff"/><circle cx="1.57" cy="1.57" r="1.57" transform="translate(12.558)" fill="#fff"/><circle cx="1.57" cy="1.57" r="1.57" transform="translate(0 5.023)" fill="#fff"/><circle cx="1.57" cy="1.57" r="1.57" transform="translate(6.279 5.023)" fill="#fff"/><circle cx="1.57" cy="1.57" r="1.57" transform="translate(12.558 5.023)" fill="#fff"/></g></svg>