<svg width="20" height="20" viewBox="0 0 17 17" fill="none" xmlns="http://www.w3.org/2000/svg">
    <path
        d="M5.13477 3.54101V1.41601C5.13581 1.2755 5.19209 1.14105 5.29145 1.04169C5.3908 0.942337 5.52526 0.886056 5.66577 0.88501C5.80627 0.886056 5.94073 0.942337 6.04008 1.04169C6.13944 1.14105 6.19572 1.2755 6.19677 1.41601V3.54101C6.19572 3.68152 6.13944 3.81597 6.04008 3.91533C5.94073 4.01468 5.80627 4.07096 5.66577 4.07201C5.52526 4.07096 5.3908 4.01468 5.29145 3.91533C5.19209 3.81597 5.13581 3.68152 5.13477 3.54101Z"
        fill="black" />
    <path
        d="M10.8018 3.54101V1.41601C10.8028 1.2755 10.8591 1.14105 10.9584 1.04169C11.0578 0.942337 11.1923 0.886056 11.3328 0.88501C11.4733 0.886056 11.6077 0.942337 11.7071 1.04169C11.8064 1.14105 11.8627 1.2755 11.8638 1.41601V3.54101C11.8627 3.68152 11.8064 3.81597 11.7071 3.91533C11.6077 4.01468 11.4733 4.07096 11.3328 4.07201C11.1923 4.07096 11.0578 4.01468 10.9584 3.91533C10.8591 3.81597 10.8028 3.68152 10.8018 3.54101Z"
        fill="black" />
    <path
        d="M5.75199 10.214C5.66519 10.1797 5.58576 10.1291 5.51799 10.065C5.38663 9.92886 5.31315 9.74713 5.31299 9.55798C5.31467 9.46679 5.33403 9.37679 5.36999 9.29298C5.40557 9.20678 5.45562 9.1273 5.51799 9.05798C5.58593 8.99454 5.66535 8.94465 5.75199 8.91098C5.88114 8.85843 6.02273 8.84435 6.1597 8.87043C6.29668 8.89651 6.42319 8.96164 6.52399 9.05798C6.65249 9.19311 6.72564 9.37153 6.72899 9.55798C6.72702 9.60695 6.72168 9.65574 6.71299 9.70398C6.70612 9.7484 6.69264 9.79155 6.67299 9.83198C6.65856 9.87641 6.63839 9.91877 6.61299 9.95798C6.58683 9.995 6.55845 10.0304 6.52799 10.064C6.39285 10.1925 6.21444 10.2656 6.02799 10.269C5.93323 10.2694 5.83936 10.2507 5.75199 10.214Z"
        fill="black" />
    <path
        d="M8.23099 10.214C8.1442 10.1797 8.06477 10.1291 7.99699 10.065C7.86683 9.93012 7.79344 9.75041 7.79199 9.56298C7.79302 9.47011 7.81239 9.37835 7.84899 9.29298C7.88427 9.20573 7.93433 9.12521 7.99699 9.05498C8.06519 8.99262 8.14459 8.94376 8.23099 8.91098C8.35957 8.85638 8.50139 8.84092 8.63871 8.86653C8.77603 8.89215 8.90275 8.9577 9.00299 9.05498C9.13149 9.19012 9.20464 9.36853 9.20799 9.55498C9.20616 9.60496 9.20082 9.65475 9.19199 9.70398C9.18513 9.74841 9.17164 9.79155 9.15199 9.83198C9.13733 9.87538 9.11717 9.91671 9.09199 9.95498C9.06584 9.99201 9.03745 10.0274 9.00699 10.061C8.87186 10.1895 8.69344 10.2626 8.50699 10.266C8.41244 10.2673 8.31857 10.2497 8.23099 10.214Z"
        fill="black" />
    <path
        d="M10.71 10.214C10.6232 10.1798 10.5438 10.1292 10.476 10.065L10.391 9.95504C10.3648 9.91693 10.3436 9.87558 10.328 9.83204C10.3073 9.79178 10.2928 9.74862 10.285 9.70404C10.2772 9.6574 10.2725 9.6103 10.271 9.56304C10.2723 9.37381 10.3456 9.19219 10.476 9.05504C10.5442 8.99268 10.6236 8.94381 10.71 8.91104C10.8385 8.85604 10.9804 8.84036 11.1178 8.86599C11.2552 8.89162 11.382 8.95741 11.482 9.05504C11.6105 9.19017 11.6836 9.36859 11.687 9.55504C11.6852 9.60502 11.6798 9.65481 11.671 9.70404C11.6641 9.74846 11.6506 9.79161 11.631 9.83204C11.6163 9.87543 11.5962 9.91677 11.571 9.95504C11.5448 9.99206 11.5165 10.0275 11.486 10.061C11.3509 10.1895 11.1724 10.2627 10.986 10.266C10.8914 10.2674 10.7976 10.2497 10.71 10.214Z"
        fill="black" />
    <path
        d="M5.75199 12.693C5.66593 12.6564 5.58678 12.6053 5.51799 12.542C5.38949 12.4068 5.31634 12.2284 5.31299 12.042C5.31402 11.9491 5.33339 11.8573 5.36999 11.772C5.40275 11.6858 5.45316 11.6075 5.51799 11.542C5.65502 11.4156 5.83459 11.3455 6.02099 11.3455C6.20739 11.3455 6.38696 11.4156 6.52399 11.542C6.65249 11.6771 6.72564 11.8555 6.72899 12.042C6.72564 12.2284 6.65249 12.4068 6.52399 12.542C6.38885 12.6705 6.21044 12.7436 6.02399 12.747C5.93064 12.7472 5.83819 12.7288 5.75199 12.693Z"
        fill="black" />
    <path
        d="M7.99699 12.542C7.86849 12.4068 7.79534 12.2284 7.79199 12.042C7.79302 11.9491 7.81239 11.8573 7.84899 11.772C7.88175 11.6858 7.93216 11.6075 7.99699 11.542C8.13402 11.4156 8.31359 11.3455 8.49999 11.3455C8.68639 11.3455 8.86596 11.4156 9.00299 11.542C9.06818 11.6074 9.11894 11.6857 9.15199 11.772C9.18859 11.8573 9.20796 11.9491 9.20899 12.042C9.20564 12.2284 9.13249 12.4068 9.00399 12.542C8.86886 12.6705 8.69044 12.7436 8.50399 12.747C8.31512 12.7454 8.13389 12.6721 7.99699 12.542Z"
        fill="black" />
    <path
        d="M10.476 12.545C10.4107 12.4783 10.3603 12.3986 10.328 12.311C10.2915 12.226 10.2722 12.1345 10.271 12.042C10.2722 11.9495 10.2915 11.8581 10.328 11.773C10.3603 11.6854 10.4107 11.6057 10.476 11.539C10.5585 11.4572 10.6598 11.397 10.7711 11.3637C10.8824 11.3304 11.0001 11.325 11.114 11.348C11.161 11.3544 11.2066 11.3686 11.249 11.39C11.2943 11.4055 11.3374 11.4271 11.377 11.454C11.414 11.4802 11.4494 11.5086 11.483 11.539C11.6115 11.6741 11.6846 11.8526 11.688 12.039C11.6846 12.2255 11.6115 12.4039 11.483 12.539C11.3479 12.6675 11.1694 12.7407 10.983 12.744C10.7949 12.744 10.6138 12.673 10.476 12.545Z"
        fill="black" />
    <path
        d="M2.47924 6.96998C2.33856 6.96893 2.20396 6.91251 2.10458 6.81294C2.00519 6.71337 1.94903 6.57866 1.94824 6.43798C1.94929 6.29748 2.00557 6.16302 2.10493 6.06367C2.20428 5.96431 2.33874 5.90803 2.47924 5.90698H14.5212C14.6611 5.90907 14.7945 5.96581 14.893 6.06505C14.9915 6.1643 15.0472 6.29816 15.0482 6.43798C15.0472 6.57849 14.9909 6.71294 14.8916 6.8123C14.7922 6.91166 14.6577 6.96794 14.5172 6.96898L2.47924 6.96998Z"
        fill="black" />
    <path
        d="M11.3338 16.115H5.66678C5.11782 16.1723 4.56299 16.1064 4.04277 15.922C3.52255 15.7375 3.05006 15.4393 2.65978 15.049C2.2695 14.6587 1.97127 14.1863 1.78684 13.666C1.60242 13.1458 1.53646 12.591 1.59378 12.042V6.02103C1.53646 5.47207 1.60242 4.91724 1.78684 4.39702C1.97127 3.8768 2.2695 3.40431 2.65978 3.01403C3.05006 2.62374 3.52255 2.32551 4.04277 2.14109C4.56299 1.95667 5.11782 1.89071 5.66678 1.94803H11.3338C11.8827 1.89071 12.4376 1.95667 12.9578 2.14109C13.478 2.32551 13.9505 2.62374 14.3408 3.01403C14.7311 3.40431 15.0293 3.8768 15.2137 4.39702C15.3981 4.91724 15.4641 5.47207 15.4068 6.02103V12.042C15.4641 12.591 15.3981 13.1458 15.2137 13.666C15.0293 14.1863 14.7311 14.6587 14.3408 15.049C13.9505 15.4393 13.478 15.7375 12.9578 15.922C12.4376 16.1064 11.8827 16.1723 11.3338 16.115ZM5.66678 3.01103C3.64078 3.01103 2.65678 3.99603 2.65678 6.02103V12.042C2.65678 14.068 3.64178 15.053 5.66678 15.053H11.3338C13.3598 15.053 14.3438 14.068 14.3438 12.042V6.02103C14.3438 3.99503 13.3588 3.01103 11.3338 3.01103H5.66678Z"
        fill="black" />
</svg>
