<svg xmlns="http://www.w3.org/2000/svg" width="28" height="28" viewBox="0 0 28 28">
  <g id="vuesax_bold_message" transform="translate(-684 -188)">
    <g id="message" transform="translate(684 188)">
      <path id="Vector" d="M17.5,0H5.833A5.823,5.823,0,0,0,0,5.81v8.143a5.823,5.823,0,0,0,5.833,5.81h1.75a1.341,1.341,0,0,1,.933.467l1.75,2.322a1.658,1.658,0,0,0,2.8,0l1.75-2.322a1.183,1.183,0,0,1,.933-.467H17.5a5.823,5.823,0,0,0,5.833-5.81V5.81A5.823,5.823,0,0,0,17.5,0ZM7,11.667A1.167,1.167,0,1,1,8.167,10.5,1.163,1.163,0,0,1,7,11.667Zm4.667,0A1.167,1.167,0,1,1,12.833,10.5,1.163,1.163,0,0,1,11.667,11.667Zm4.667,0A1.167,1.167,0,1,1,17.5,10.5,1.163,1.163,0,0,1,16.333,11.667Z" transform="translate(2.333 2.333)" fill="black"/>
      <path id="Vector-2" d="M0,0H28V28H0Z" fill="none" opacity="0"/>
      <path id="Vector-3" d="M0,0H28V28H0Z" transform="translate(28 28) rotate(180)" fill="none" opacity="0"/>
    </g>
  </g>
</svg>
