<svg width="24" height="24" viewBox="0 0 24 24" fill="none" xmlns="http://www.w3.org/2000/svg">
<path d="M5.53999 19.52C4.95267 19.5313 4.38347 19.3165 3.94999 18.92C3.6861 18.6582 3.48716 18.3382 3.36908 17.9857C3.251 17.6332 3.21707 17.258 3.26999 16.89L3.63999 13.65C3.74355 12.9588 4.04581 12.3126 4.50999 11.79L12.72 3.10005C14.77 0.930049 16.91 0.870049 19.08 2.92005C21.25 4.97005 21.31 7.11005 19.26 9.28005L11.052 17.97C10.5556 18.4623 9.9267 18.7993 9.24199 18.94L6.02199 19.49C5.85199 19.5 5.69999 19.52 5.53999 19.52ZM15.93 2.91005C15.5132 2.95396 15.1099 3.08316 14.7452 3.2896C14.3805 3.49604 14.0622 3.77531 13.81 4.11005L5.59999 12.81C5.3647 13.1004 5.20342 13.4436 5.12999 13.81L4.75999 17.05C4.73306 17.1866 4.73896 17.3277 4.77721 17.4616C4.81546 17.5954 4.88496 17.7183 4.97999 17.82C5.0873 17.9082 5.21356 17.9703 5.34888 18.0015C5.48419 18.0328 5.6249 18.0323 5.75999 18L8.97999 17.45C9.34163 17.3603 9.67508 17.1816 9.94999 16.93L18.16 8.24005C19.4 6.92005 19.85 5.70005 18.04 4.00005C17.505 3.37635 16.7482 2.98542 15.93 2.91005Z" fill="#292D32"/>
<path d="M17.3401 10.95H17.2701C15.7545 10.8015 14.3314 10.1529 13.2252 9.10638C12.1189 8.05987 11.3924 6.67497 11.1601 5.16997C11.1318 4.97271 11.1819 4.77222 11.2996 4.61146C11.4174 4.4507 11.5935 4.34247 11.7901 4.30997C11.9873 4.28167 12.1878 4.33178 12.3486 4.44954C12.5093 4.56731 12.6176 4.74336 12.6501 4.93997C12.8332 6.11662 13.402 7.19908 14.2673 8.01724C15.1325 8.83541 16.245 9.3429 17.4301 9.45997C17.6274 9.48043 17.8086 9.57815 17.9342 9.73179C18.0597 9.88543 18.1194 10.0825 18.1001 10.28C18.0751 10.4643 17.9845 10.6336 17.8449 10.7566C17.7054 10.8796 17.5261 10.9483 17.3401 10.95Z" fill="#292D32"/>
<path d="M21 22.75H3C2.80149 22.7487 2.61149 22.6693 2.47112 22.5289C2.33075 22.3885 2.25131 22.1985 2.25 22C2.25131 21.8015 2.33075 21.6115 2.47112 21.4711C2.61149 21.3307 2.80149 21.2513 3 21.25H21C21.1985 21.2513 21.3885 21.3307 21.5289 21.4711C21.6693 21.6115 21.7487 21.8015 21.75 22C21.7487 22.1985 21.6693 22.3885 21.5289 22.5289C21.3885 22.6693 21.1985 22.7487 21 22.75Z" fill="#292D32"/>
</svg>
