<svg xmlns="http://www.w3.org/2000/svg" width="107.505" height="122.369" viewBox="0 0 107.505 122.369">
  <g id="svgexport-4_2_" transform="translate(-13.981 -6.549)">
    <g id="Group_9850">
      <path id="Path_5124" d="M21.55,109.428s7.56-47.436,14.363-48.192,83.155,1.7,85.234,6.426-5.67,60.627-16.442,60.91S21.55,109.428,21.55,109.428Z" fill="#ffac17"/>
      <path id="Path_5125" d="M55.926,21.149a291.243,291.243,0,0,1,50.995,2.389,5.268,5.268,0,0,1,4.73,5.195c.834,27.058-.589,38.71-2.987,63.77a5.219,5.219,0,0,1-5.195,4.73c-17.066.645-34.1.67-51-2.39-2.708-.49-4.8-2.443-4.73-5.195.685-25.563.132-37.245,2.987-63.769a5.272,5.272,0,0,1,5.2-4.73Z" fill="#0e2cb1"/>
      <path id="Path_5126" d="M93.114,31.726a8.682,8.682,0,1,0,9.42,9.253.511.511,0,0,0-.579-.577h-6.77c-1.026,0-1.3-.57-1.3-1.378V32.446c0-.628-.423-.732-.775-.72Z" fill="#fff"/>
      <g id="Group_9847">
        <path id="Path_5127" d="M59.09,57.652s43.46-.778,44.066.77-.34,2.066-2.75,1.985-40.277.169-42,0-2.157-2.75.684-2.755Zm24.464,6.815s19-.727,19.6.82-.34,2.067-2.75,1.986-15.813.118-17.535-.05-2.157-2.75.683-2.755Z" fill="#ffc517"/>
      </g>
      <path id="Path_5128" d="M24.345,19.074A291.361,291.361,0,0,1,73.858,6.633a5.271,5.271,0,0,1,6.029,3.607C88.5,35.9,90.5,47.47,95.445,72.155a5.221,5.221,0,0,1-3.608,6.03c-16.152,5.546-32.456,10.49-49.512,12.44-2.735.313-5.305-.952-6.03-3.607-6.727-24.672-10.63-35.7-15.557-61.915a5.272,5.272,0,0,1,3.607-6.029Z" fill="#2649e7"/>
      <path id="Path_5129" d="M29.782,25.766S57.3,16.987,58.558,18.8s2.344,5.09-.244,6.1S32,31.42,31.041,31.129s-3.826-4.63-1.26-5.363Z" fill="#fff"/>
      <path id="Path_5130" d="M32.236,35.532s41.983-11.26,42.945-9.9.17,2.087-2.189,2.59-39.042,9.9-40.753,10.153-2.758-2.147,0-2.84Zm1.661,6.61s18.257-5.3,19.219-3.942.17,2.087-2.189,2.591S35.612,44.728,33.9,44.981s-2.758-2.147,0-2.839Z" fill="#ffc517"/>
      <path id="Path_5131" d="M46.961,76.754a55.2,55.2,0,0,1-1.688-6.38c0-1.02,3.349-2.074,4.07-1.235a42.569,42.569,0,0,1,1.928,6.32C51.281,75.839,46.961,76.754,46.961,76.754Z" fill="#ff4b3d"/>
      <path id="Path_5132" d="M54.245,74.924s-3.436-12.32-3.438-13.34,3.349-2.074,4.07-1.235c.392.456,3.667,12.9,3.677,13.28s-4.31,1.295-4.31,1.295Z" fill="#ffc517"/>
      <path id="Path_5133" d="M61.528,73.094s-2.31-7.84-2.312-8.86S62.565,62.16,63.286,63a81.436,81.436,0,0,1,2.551,8.8c.01.38-4.31,1.295-4.31,1.295Z" fill="#ff4b3d"/>
      <path id="Path_5134" d="M68.81,71.264s-3.938-14.32-3.939-15.34,3.349-2.074,4.07-1.235c.391.456,4.169,14.9,4.18,15.28s-4.31,1.295-4.31,1.295Zm7.284-1.83s-5.024-18.64-5.025-19.66,3.348-2.074,4.07-1.235c.39.456,5.254,19.22,5.265,19.6S76.094,69.434,76.094,69.434Z" fill="#ffc517"/>
      <path id="Path_5135" d="M71.395,45.29l-7.484,3.538c-.141.084.144.987.064,1.13l-4.884,7.694-8.806-3.893c-.419-.17-.406.77-.646,1.152l-5.746,7.571a.932.932,0,1,0,1.578.992L50.1,55.49l8.912,3.188c.435.175,1,.641,1.232.232L65.076,50.3l6.935-4.12a.932.932,0,0,0,.325-1.276c-.217-.367-.874.344-.94.384Z" fill="#fff"/>
      <g id="Group_9848">
        <path id="Path_5136" d="M46.664,62.71a1.98,1.98,0,1,1-2.4-1.437,1.98,1.98,0,0,1,2.4,1.437ZM52.036,54.3a1.98,1.98,0,1,1-2.4-1.438A1.98,1.98,0,0,1,52.036,54.3Zm9.267,3.37a1.98,1.98,0,1,1-2.4-1.438,1.98,1.98,0,0,1,2.4,1.438ZM66.274,49.7a1.98,1.98,0,1,1-2.4-1.437,1.98,1.98,0,0,1,2.4,1.437Zm7.536-5.21a1.98,1.98,0,1,1-2.4-1.438,1.98,1.98,0,0,1,2.4,1.438Z" fill="#ffc517"/>
      </g>
      <path id="Path_5137" d="M57.8,70.582c-1.488.425-2.968.824-4.424,1.195.49,1.792.867,3.147.867,3.147s4.32-.915,4.31-1.295c0-.115-.322-1.389-.753-3.047Z" fill="#ffac17"/>
      <path id="Path_5138" d="M45.991,73.5c.46,1.632.97,3.258.97,3.258s4.32-.915,4.31-1.295c-.005-.183-.364-1.554-.776-2.973-1.554.369-3.055.7-4.5,1.01ZM64.95,68.318c-1.446.508-2.91.988-4.378,1.441.5,1.793.956,3.335.956,3.335s4.32-.915,4.31-1.295c0-.163-.406-1.724-.888-3.48Z" fill="#cf1531"/>
      <path id="Path_5139" d="M72.008,65.517q-2.112.95-4.276,1.78c.606,2.243,1.079,3.967,1.079,3.967s4.32-.915,4.31-1.3c0-.134-.486-2.05-1.113-4.45Zm6.829-3.625q-2.009,1.269-4.134,2.339c.78,2.936,1.39,5.2,1.39,5.2s4.321-.916,4.31-1.3c0-.142-.69-2.869-1.566-6.246Z" fill="#ffac17"/>
      <g id="Group_9849">
        <path id="Path_5140" d="M104.705,128.573s-82.02,2.079-85.045-3.969S14.369,74.9,13.99,69.42s10.584-3.213,17.388-2.835,8.693,1.89,10.2,6.047-.756,6.426,8.316,7.938,59.72.945,63.689,5.1-1.89,42.522-8.883,42.9Z" fill="#ffc517"/>
        <path id="Path_5141" d="M96.511,30.593v6.36c0,1.013.26,1.467,1.283,1.467h6.5a.839.839,0,0,0,.84-.873c0-5.67-5.517-7.7-7.728-7.7a.893.893,0,0,0-.9.744Z" fill="#ff4b3d"/>
        <path id="Path_5142" d="M23.65,120.944s74.7,4.142,77.24,3.34-1.2-1.737-6.28-1.6-67.219-3.474-69.758-3.34-4.543,1.6-1.2,1.6Z" fill="#ffac17"/>
        <path id="Path_5143" d="M22.647,103.839s-1.4,10.423,2.606,11.492,21.916,1.47,24.322,1.07,3.474-13.23.2-13.9c-2.88-.588-26.46-2.4-27.128,1.337Z" fill="#fff"/>
        <path id="Path_5144" d="M26.456,105.509s21.448-1.938,21.649-.067S29.93,107.38,26.857,107.38s-2.54-1.67-.4-1.871Zm-.535,5.412s13.564-1.6,14.166-.133-11.36,1.937-13.163,2-3.007-1.737-1-1.87Z" fill="#405fe9"/>
      </g>
    </g>
  </g>
</svg>
