<svg xmlns="http://www.w3.org/2000/svg" width="114.537" height="122.327" viewBox="0 0 114.537 122.327">
  <g id="svgexport-8_8_" transform="translate(-10.51 -6.608)" opacity="0.88">
    <path id="Path_4973" d="M25.3,54.763a772.536,772.536,0,0,1,88.554-3.5c4.227.073,7.077,3.183,7.927,7.325,4.149,20.228,3.654,39.224,2.29,57.991a8.255,8.255,0,0,1-7.325,7.927c-29.98,3.83-59.608,5.635-88.554,3.5a8.286,8.286,0,0,1-7.927-7.325,295.014,295.014,0,0,1-2.29-57.991A8.115,8.115,0,0,1,25.3,54.763Z" fill="#ff4b3d"/>
    <path id="Path_4974" d="M29.05,41.807a772.675,772.675,0,0,1,87.374,14.83c4.122.943,6.27,4.574,6.247,8.8-.11,20.648-4.51,39.135-9.712,57.218a8.257,8.257,0,0,1-8.8,6.247c-30.126-2.431-59.49-6.773-87.374-14.83a8.286,8.286,0,0,1-6.247-8.8,295.1,295.1,0,0,1,9.712-57.218,8.115,8.115,0,0,1,8.8-6.247Z" fill="#ffc517"/>
    <path id="Path_4975" d="M25.337,52.213S52.5,83.144,62.3,86.539s55.827-22.066,56.015-19.426-33.383,19.8-33.383,19.8S95.121,98.044,97.95,109.737s-.755,11.5-2.263,7.356S89.274,96.158,81.73,92.952s-6.79-3.018-13.768-.377S56.457,92.2,52.685,87.859s-4.338-5.47-8.676-4.337S29.487,87.859,25.715,97.29s-6.413,2.829-2.452-4.9,14.71-13.2,15.465-13.768-10.184-18.106-13.013-21.5-3.772-9.242-.378-4.9Z" fill="#ffac17"/>
    <path id="Path_4976" d="M64.348,75.123c-5.791-1.637-8.574,1.3-4.351,6.07s9.713.482,10.76-2.733-6.41-3.337-6.41-3.337Z" fill="#fff"/>
    <path id="Path_4977" d="M67.95,6.608A27.581,27.581,0,1,0,84.363,56.354c2.927.857,5.774,2.462,6.971,5.455,2.9,7.242-3.862,11.393-2.317,11.876S95.679,73.2,98,64.03c1.663-6.582-2.927-13.54-5.66-16.958A27.579,27.579,0,0,0,67.949,6.608Z" fill="#2649e7"/>
    <path id="Path_4978" d="M54.61,28.966s-2.44-8.836,5.454-13.293,19.68.525,18.084,9.384-6.665,10.621-6.2,14.146,3.236,5.992.454,7.467-6.332-5.81-4.723-9.863,7.645-10.369,4.349-14.915a5.619,5.619,0,0,0-10,.95c-1.39,3.526,1.834,4.712-.106,7.7s-6.014,4.776-7.32-1.575Z" fill="#fff"/>
    <path id="Path_4979" d="M93.829,43.176C73.4,58.266,56.436,55.693,46.542,51.595a27.533,27.533,0,0,0,37.667,4.662c2.922.854,5.764,2.457,6.96,5.444,2.89,7.228-3.855,11.372-2.314,11.854s6.65-.482,8.963-9.637c1.66-6.57-2.922-13.517-5.65-16.928a27.532,27.532,0,0,0,1.66-3.814Z" fill="#1739d5"/>
    <path id="Path_4980" d="M71.363,50.442c-.334,2.107.866,5.548,3.758,3.81s1.422-3.977.828-5.153-3.9-1.236-4.586,1.343Z" fill="#fff"/>
  </g>
</svg>
