<svg width="40" height="40" viewBox="0 0 40 40" fill="none" xmlns="http://www.w3.org/2000/svg">
<path d="M19.1669 27.8239H20.8338V39.9994H19.1669V27.8239ZM7.50073 24.3456H32.5008V26.0844H7.50073V24.3456ZM35.8339 13.0403C35.0097 13.0405 34.2039 12.7856 33.5186 12.3078C32.8332 11.83 32.299 11.1509 31.9835 10.3563C31.6681 9.56164 31.5855 8.68723 31.7462 7.84363C31.907 7.00003 32.3039 6.22512 32.8867 5.61692C33.4695 5.00872 34.212 4.59455 35.0204 4.42678C35.8288 4.25902 36.6666 4.3452 37.4281 4.67442C38.1895 5.00365 38.8403 5.56113 39.2981 6.27636C39.7559 6.99159 40.0002 7.83244 40 8.69257C39.9987 9.84523 39.5593 10.9503 38.7783 11.7653C37.9973 12.5804 36.9384 13.0389 35.8339 13.0403ZM35.8339 6.08515C35.3394 6.08515 34.8561 6.23816 34.4449 6.52484C34.0338 6.81151 33.7134 7.21898 33.5242 7.69571C33.3349 8.17243 33.2854 8.69701 33.3819 9.2031C33.4784 9.70919 33.7165 10.1741 34.0661 10.5389C34.4157 10.9038 34.8612 11.1523 35.3461 11.2529C35.8311 11.3536 36.3338 11.3019 36.7906 11.1045C37.2474 10.907 37.6378 10.5726 37.9125 10.1436C38.1873 9.71453 38.3339 9.21012 38.3339 8.69411C38.3335 8.00216 38.07 7.33863 37.6013 6.8492C37.1326 6.35977 36.4969 6.08442 35.8339 6.0836V6.08515Z" fill="#292D32"/>
<path d="M27.4999 39.9993C27.3871 39.9998 27.2754 39.9759 27.1719 39.929C27.0713 39.8841 26.9801 39.8189 26.9036 39.7373C26.8272 39.6556 26.7669 39.559 26.7263 39.453C26.6856 39.3469 26.6654 39.2336 26.6668 39.1194C26.6681 39.0052 26.691 38.8925 26.7342 38.7875L29.2342 32.7002C29.2983 32.5438 29.4051 32.4104 29.5412 32.3167C29.6773 32.223 29.8369 32.1731 29.9999 32.1732H35.833C36.4958 32.1724 37.1312 31.8972 37.5999 31.4081C38.0686 30.919 38.3322 30.2559 38.333 29.5642V18.2582C38.3326 17.7969 38.1569 17.3547 37.8444 17.0286C37.5318 16.7024 37.1081 16.519 36.6661 16.5186H35.833C35.248 16.5186 34.7156 16.922 33.998 17.9135C33.193 19.0232 30.7501 22.1539 30.6464 22.286C30.5681 22.386 30.4694 22.4665 30.3576 22.5219C30.2458 22.5772 30.1237 22.6059 29.9999 22.6059H25.8337C25.6128 22.6061 25.4011 22.6978 25.2449 22.8608C25.0887 23.0238 25.0008 23.2448 25.0006 23.4753V25.2141C25.0006 25.4447 24.9129 25.6659 24.7566 25.8289C24.6004 25.9919 24.3885 26.0835 24.1676 26.0835C23.9466 26.0835 23.7347 25.9919 23.5785 25.8289C23.4222 25.6659 23.3345 25.4447 23.3345 25.2141V23.4753C23.3353 22.7836 23.5989 22.1205 24.0676 21.6314C24.5362 21.1423 25.1717 20.8672 25.8345 20.8664H29.6045C30.2613 20.0225 32.0312 17.7443 32.6695 16.8633C33.3737 15.8927 34.3683 14.7767 35.8345 14.7767H36.6676C37.551 14.778 38.3979 15.1447 39.0226 15.7966C39.6473 16.4486 39.9988 17.3324 39.9999 18.2543V29.5596C39.9986 30.7122 39.5592 31.8173 38.7782 32.6323C37.9972 33.4474 36.9383 33.9059 35.8338 33.9073H30.5494L28.2656 39.4715C28.2016 39.6281 28.0949 39.7616 27.9588 39.8554C27.8226 39.9493 27.6631 39.9993 27.4999 39.9993Z" fill="#292D32"/>
<path d="M24.17 40C24.0381 39.9996 23.9081 39.9665 23.7908 39.9035C23.6735 39.8405 23.5722 39.7494 23.4952 39.6377C23.4182 39.5259 23.3676 39.3967 23.3477 39.2606C23.3278 39.1245 23.3391 38.9854 23.3806 38.8547L26.1435 30.1994C26.364 29.5064 26.7883 28.9036 27.356 28.4767C27.9236 28.0498 28.6058 27.8205 29.3055 27.8215H31.67V25.2125C31.67 24.9819 31.7578 24.7606 31.9142 24.5975C32.0705 24.4344 32.2824 24.3428 32.5035 24.3428C32.7245 24.3428 32.9365 24.4344 33.0928 24.5975C33.2491 24.7606 33.3369 24.9819 33.3369 25.2125V28.6901C33.3369 28.9207 33.2492 29.1419 33.0929 29.3049C32.9367 29.4679 32.7248 29.5595 32.5038 29.5595H29.3018C28.9522 29.5588 28.6112 29.6733 28.3275 29.8865C28.0438 30.0998 27.8317 30.401 27.7216 30.7473L24.9579 39.4027C24.9031 39.5758 24.7975 39.7265 24.6561 39.8337C24.5148 39.9409 24.3447 39.9991 24.17 40Z" fill="#292D32"/>
<path d="M32.4993 26.0851C32.3446 26.0851 32.1929 26.0402 32.0613 25.9553C31.9297 25.8704 31.8234 25.749 31.7542 25.6046C31.685 25.4601 31.6557 25.2985 31.6696 25.1377C31.6835 24.9769 31.74 24.8233 31.8329 24.6941L34.3329 21.2165C34.4674 21.038 34.6634 20.9215 34.8792 20.8919C35.095 20.8623 35.3133 20.9219 35.4874 21.0581C35.6615 21.1943 35.7777 21.3962 35.811 21.6207C35.8444 21.8451 35.7922 22.0742 35.6658 22.259L33.1658 25.7366C33.0885 25.845 32.988 25.933 32.8722 25.9935C32.7565 26.054 32.6288 26.0854 32.4993 26.0851ZM4.16692 13.0403C3.34275 13.0403 2.53709 12.7853 1.85183 12.3074C1.16657 11.8296 0.632482 11.1504 0.317119 10.3557C0.00175636 9.56109 -0.0807193 8.68671 0.0801223 7.84315C0.240964 6.9996 0.637898 6.22477 1.22073 5.61665C1.80356 5.00852 2.5461 4.59443 3.35445 4.42673C4.1628 4.25902 5.00066 4.34525 5.76205 4.6745C6.52344 5.00375 7.17417 5.56123 7.63195 6.27644C8.08973 6.99166 8.33399 7.83248 8.33384 8.69257C8.33247 9.84536 7.89299 10.9505 7.11182 11.7656C6.33065 12.5807 5.27157 13.0391 4.16692 13.0403ZM4.16692 6.08515C3.67234 6.08484 3.18879 6.23764 2.77744 6.5242C2.36609 6.81075 2.04543 7.2182 1.85602 7.69499C1.66662 8.17178 1.61699 8.69648 1.7134 9.20272C1.80982 9.70895 2.04795 10.174 2.39767 10.5389C2.74739 10.9039 3.19299 11.1524 3.67808 11.253C4.16317 11.3536 4.66596 11.3018 5.12284 11.1042C5.57971 10.9065 5.97015 10.5719 6.24474 10.1426C6.51933 9.71333 6.66574 9.2087 6.66545 8.69257C6.66466 8.00115 6.40122 7.33825 5.93287 6.8492C5.46452 6.36015 4.82947 6.08483 4.16692 6.0836V6.08515ZM12.5008 39.9994C12.3377 39.9994 12.1782 39.9495 12.0421 39.8558C11.9059 39.7621 11.7992 39.6288 11.7351 39.4723L9.45129 33.9082H4.16692C3.06292 33.9067 2.00448 33.4486 1.22355 32.6343C0.442619 31.8199 0.00289736 30.7156 0.00074233 29.5635V18.2583C0.00191789 17.3363 0.353381 16.4525 0.978064 15.8006C1.60275 15.1487 2.44966 14.7819 3.33309 14.7807H4.16692C5.63316 14.7807 6.62842 15.895 7.33118 16.8672C7.97025 17.7482 9.73936 20.0264 10.3962 20.8703H14.1669C14.8297 20.8711 15.4652 21.1463 15.9338 21.6354C16.4025 22.1245 16.6662 22.7876 16.6669 23.4793V25.2181C16.6669 25.4486 16.5792 25.6698 16.4229 25.8328C16.2667 25.9959 16.0548 26.0875 15.8339 26.0875C15.6129 26.0875 15.401 25.9959 15.2448 25.8328C15.0885 25.6698 15.0008 25.4486 15.0008 25.2181V23.4793C15.0004 23.2488 14.9125 23.0279 14.7563 22.865C14.6002 22.702 14.3885 22.6103 14.1677 22.6099H9.9978C9.87414 22.61 9.75202 22.5814 9.64031 22.526C9.5286 22.4707 9.43013 22.39 9.35206 22.2899C9.24839 22.1578 6.80466 19.0272 6.00046 17.9167C5.28215 16.9259 4.75045 16.5256 4.1647 16.5256H3.33309C2.89125 16.5261 2.4676 16.7093 2.1551 17.0353C1.8426 17.3613 1.66677 17.8033 1.66618 18.2644V29.5635C1.66696 30.2552 1.93061 30.9183 2.39928 31.4074C2.86795 31.8965 3.50338 32.1717 4.16618 32.1725H9.9978C10.1609 32.1724 10.3204 32.2223 10.4565 32.316C10.5926 32.4097 10.6994 32.5431 10.7635 32.6995L13.2665 38.7861C13.3535 38.9979 13.3564 39.2371 13.2744 39.4512C13.1925 39.6652 13.0325 39.8365 12.8296 39.9275C12.7261 39.9744 12.6143 39.9983 12.5015 39.9978L12.5008 39.9994Z" fill="#292D32"/>
<path d="M15.8339 40C15.659 39.9998 15.4885 39.9423 15.3466 39.8355C15.2046 39.7287 15.0985 39.5781 15.043 39.4049L12.2794 30.7496C12.169 30.4032 11.9569 30.1019 11.6731 29.8885C11.3892 29.6752 11.0482 29.5605 10.6984 29.561H7.50008C7.27913 29.561 7.06723 29.4694 6.911 29.3064C6.75476 29.1433 6.66699 28.9222 6.66699 28.6916V25.214C6.66699 24.9833 6.7548 24.7621 6.91111 24.599C7.06741 24.4359 7.2794 24.3442 7.50045 24.3442C7.72149 24.3442 7.93349 24.4359 8.08979 24.599C8.2461 24.7621 8.33391 24.9833 8.33391 25.214V27.823H10.6984C11.398 27.8227 12.08 28.0522 12.6477 28.479C13.2154 28.9058 13.6399 29.5082 13.8612 30.2009L16.6248 38.8562C16.6595 38.9646 16.6734 39.079 16.6658 39.1929C16.6581 39.3068 16.629 39.4181 16.5801 39.5203C16.5312 39.6225 16.4635 39.7137 16.3808 39.7885C16.2981 39.8634 16.2021 39.9205 16.0983 39.9567C16.0129 39.9857 15.9237 40.0003 15.8339 40Z" fill="#292D32"/>
<path d="M7.50149 26.085C7.37217 26.0849 7.24463 26.0535 7.12896 25.9931C7.01329 25.9328 6.91266 25.8452 6.83502 25.7372L4.33502 22.2597C4.20856 22.0748 4.15643 21.8457 4.18977 21.6213C4.22311 21.3969 4.33927 21.195 4.51341 21.0588C4.68755 20.9226 4.90584 20.8629 5.12161 20.8925C5.33737 20.9221 5.53346 21.0386 5.66796 21.2172L8.16796 24.6947C8.26079 24.8239 8.31732 24.9775 8.33121 25.1383C8.34511 25.2991 8.31582 25.4608 8.24663 25.6052C8.17744 25.7496 8.07108 25.8711 7.93947 25.9559C7.80786 26.0408 7.65621 26.085 7.50149 26.085ZM26.667 22.6074C26.5575 22.6075 26.4492 22.5851 26.348 22.5414C26.2469 22.4978 26.155 22.4338 26.0777 22.353C26.0003 22.2723 25.9389 22.1764 25.8971 22.0708C25.8553 21.9653 25.8338 21.8522 25.8339 21.738V15.6499C25.8327 14.728 25.4812 13.8442 24.8566 13.1923C24.2319 12.5403 23.385 12.1736 22.5015 12.1723H17.5008C16.6173 12.1736 15.7704 12.5403 15.1457 13.1923C14.5211 13.8442 14.1696 14.728 14.1684 15.6499V18.2589C14.1684 18.4895 14.0806 18.7106 13.9244 18.8736C13.7682 19.0367 13.5563 19.1283 13.3353 19.1283C13.1144 19.1283 12.9025 19.0367 12.7462 18.8736C12.59 18.7106 12.5022 18.4895 12.5022 18.2589V15.6499C12.5028 14.2662 13.0295 12.9393 13.9667 11.9604C14.9038 10.9816 16.1748 10.4307 17.5008 10.4289H22.5008C23.8264 10.4303 25.0974 10.9805 26.0348 11.9588C26.9722 12.937 27.4994 14.2634 27.5008 15.6468V21.7342C27.5013 21.8487 27.4801 21.9622 27.4384 22.0681C27.3967 22.174 27.3353 22.2703 27.2578 22.3514C27.1803 22.4325 27.0882 22.4968 26.9868 22.5406C26.8854 22.5844 26.7767 22.6068 26.667 22.6066V22.6074ZM20.0023 8.69706C19.1781 8.69722 18.3724 8.44231 17.687 7.96458C17.0017 7.48685 16.4675 6.80776 16.152 6.01318C15.8365 5.2186 15.7539 4.34423 15.9146 3.50065C16.0753 2.65707 16.4721 1.88216 17.0548 1.27393C17.6375 0.6657 18.38 0.251466 19.1883 0.0836143C19.9966 -0.0842374 20.8345 0.00183293 21.596 0.33094C22.3574 0.660048 23.0082 1.21741 23.4661 1.93254C23.924 2.64767 24.1684 3.48844 24.1684 4.34853C24.1661 5.50079 23.7261 6.60507 22.9448 7.41933C22.1636 8.23359 21.1049 8.69141 20.0008 8.69243L20.0023 8.69706ZM20.0023 1.74189C19.5078 1.74189 19.0245 1.8949 18.6133 2.18158C18.2022 2.46825 17.8818 2.87572 17.6926 3.35244C17.5033 3.82917 17.4538 4.35375 17.5503 4.85983C17.6468 5.36592 17.8849 5.8308 18.2345 6.19567C18.5841 6.56054 19.0296 6.80902 19.5145 6.90968C19.9995 7.01035 20.5021 6.95869 20.959 6.76122C21.4158 6.56375 21.8062 6.22936 22.0809 5.80031C22.3556 5.37127 22.5023 4.86686 22.5023 4.35085C22.5027 4.00764 22.4384 3.66769 22.3129 3.35043C22.1875 3.03318 22.0033 2.74484 21.771 2.5019C21.5387 2.25896 21.2628 2.06618 20.959 1.93458C20.6553 1.80298 20.3297 1.73513 20.0008 1.73493L20.0023 1.74189Z" fill="#292D32"/>
<path d="M19.1667 13.9104H20.8337V15.6492H19.1667V13.9104Z" fill="#292D32"/>
</svg>
