<svg xmlns="http://www.w3.org/2000/svg" width="31" height="31" viewBox="0 0 31 31">
    <g id="vuesax_linear_gallery" transform="translate(0.5 0.5)">
        <g id="vuesax_linear_gallery-2">
            <g id="gallery">
                <path id="Vector"
                    d="M16.25,25C22.5,25,25,22.5,25,16.25V8.75C25,2.5,22.5,0,16.25,0H8.75C2.5,0,0,2.5,0,8.75v7.5C0,22.5,2.5,25,8.75,25Z"
                    transform="translate(2.5 2.5)" fill="none" stroke="black" stroke-linecap="round"
                    stroke-linejoin="round" stroke-width="1.5" stroke-dasharray="0 0" />
                <path id="Vector-2" d="M2.5,5A2.5,2.5,0,1,1,5,2.5,2.5,2.5,0,0,1,2.5,5Z"
                    transform="translate(8.75 7.5)" fill="none" stroke="black" stroke-linecap="round"
                    stroke-linejoin="round" stroke-width="1.5" stroke-dasharray="0 0" />
                <path id="Vector-3"
                    d="M0,8.691,6.162,4.553a2.816,2.816,0,0,1,3.3.175l.413.363a2.787,2.787,0,0,0,3.525,0L18.6.628a2.787,2.787,0,0,1,3.525,0l2.038,1.75"
                    transform="translate(3.338 14.997)" fill="none" stroke="black"
                    stroke-linecap="round" stroke-linejoin="round" stroke-width="1.5"
                    stroke-dasharray="0 0" />
                <path id="Vector-4" d="M30,0V30H0V0Z" fill="none" stroke="black" stroke-width="1"
                    opacity="0" />
            </g>
        </g>
    </g>
</svg>
