<svg width="40" height="40" viewBox="0 0 40 40" fill="none" xmlns="http://www.w3.org/2000/svg">
<path d="M2.14286 8.57141H3.33571L6.00714 10.5143C6.12942 10.6035 6.27717 10.6511 6.42857 10.65C6.61761 10.6487 6.79853 10.573 6.9322 10.4393C7.06587 10.3056 7.14155 10.1247 7.14286 9.93569V8.57141H18.5714C19.1392 8.56971 19.6833 8.3434 20.0848 7.94191C20.4863 7.54041 20.7126 6.99635 20.7143 6.42856V2.14285C20.7126 1.57505 20.4863 1.031 20.0848 0.6295C19.6833 0.228004 19.1392 0.00169577 18.5714 0H2.14286C1.57506 0.00169577 1.031 0.228004 0.629502 0.6295C0.228005 1.031 0.00169578 1.57505 0 2.14285V6.42856C0.00169578 6.99635 0.228005 7.54041 0.629502 7.94191C1.031 8.3434 1.57506 8.56971 2.14286 8.57141ZM1.42857 2.14285C1.42857 1.95341 1.50383 1.77173 1.63778 1.63778C1.77174 1.50382 1.95342 1.42857 2.14286 1.42857H18.5714C18.7609 1.42857 18.9425 1.50382 19.0765 1.63778C19.2105 1.77173 19.2857 1.95341 19.2857 2.14285V6.42856C19.2857 6.618 19.2105 6.79968 19.0765 6.93363C18.9425 7.06758 18.7609 7.14284 18.5714 7.14284H6.42857C6.23913 7.14284 6.05745 7.21809 5.92349 7.35205C5.78954 7.486 5.71428 7.66768 5.71428 7.85712V8.53569L3.99286 7.27855C3.34357 6.81998 1.5 7.6957 1.42857 6.42856V2.14285ZM37.8571 2.85714H25.7143C25.1465 2.85883 24.6024 3.08514 24.2009 3.48664C23.7994 3.88813 23.5731 4.43219 23.5714 4.99999V9.28569C23.5731 9.85349 23.7994 10.3975 24.2009 10.799C24.6024 11.2005 25.1465 11.4268 25.7143 11.4285H32.8571V12.7928C32.8593 12.9238 32.8971 13.0518 32.9665 13.1629C33.0359 13.2741 33.1342 13.3642 33.251 13.4237C33.3677 13.4831 33.4985 13.5097 33.6292 13.5005C33.7599 13.4913 33.8856 13.4467 33.9929 13.3714L36.6643 11.4285H37.8571C38.4249 11.4268 38.969 11.2005 39.3705 10.799C39.772 10.3975 39.9983 9.85349 40 9.28569V4.99999C39.9983 4.43219 39.772 3.88813 39.3705 3.48664C38.969 3.08514 38.4249 2.85883 37.8571 2.85714ZM38.5714 9.28569C38.5 10.5528 36.6571 9.67712 36.0071 10.1357L34.2857 11.3928V10.7143C34.2857 10.5248 34.2105 10.3431 34.0765 10.2092C33.9425 10.0752 33.7609 9.99998 33.5714 9.99998H25.7143C25.5248 9.99998 25.3432 9.92472 25.2092 9.79077C25.0752 9.65681 25 9.47513 25 9.28569V4.99999C25 4.81055 25.0752 4.62887 25.2092 4.49491C25.3432 4.36096 25.5248 4.2857 25.7143 4.2857H37.8571C38.0466 4.2857 38.2283 4.36096 38.3622 4.49491C38.4962 4.62887 38.5714 4.81055 38.5714 4.99999V9.28569Z" fill="#292D32"/>
<path d="M10.3571 5.35709C10.9488 5.35709 11.4285 4.87739 11.4285 4.28566C11.4285 3.69393 10.9488 3.21423 10.3571 3.21423C9.76534 3.21423 9.28564 3.69393 9.28564 4.28566C9.28564 4.87739 9.76534 5.35709 10.3571 5.35709Z" fill="#292D32"/>
<path d="M5.35707 5.35709C5.94881 5.35709 6.4285 4.87739 6.4285 4.28566C6.4285 3.69393 5.94881 3.21423 5.35707 3.21423C4.76534 3.21423 4.28564 3.69393 4.28564 4.28566C4.28564 4.87739 4.76534 5.35709 5.35707 5.35709Z" fill="#292D32"/>
<path d="M15.3571 5.35709C15.9488 5.35709 16.4285 4.87739 16.4285 4.28566C16.4285 3.69393 15.9488 3.21423 15.3571 3.21423C14.7653 3.21423 14.2856 3.69393 14.2856 4.28566C14.2856 4.87739 14.7653 5.35709 15.3571 5.35709Z" fill="#292D32"/>
<path d="M31.7858 8.21426C32.3775 8.21426 32.8572 7.73457 32.8572 7.14284C32.8572 6.5511 32.3775 6.07141 31.7858 6.07141C31.1941 6.07141 30.7144 6.5511 30.7144 7.14284C30.7144 7.73457 31.1941 8.21426 31.7858 8.21426Z" fill="#292D32"/>
<path d="M28.2143 8.21426C28.806 8.21426 29.2857 7.73457 29.2857 7.14284C29.2857 6.5511 28.806 6.07141 28.2143 6.07141C27.6225 6.07141 27.1428 6.5511 27.1428 7.14284C27.1428 7.73457 27.6225 8.21426 28.2143 8.21426Z" fill="#292D32"/>
<path d="M35.3571 8.21426C35.9488 8.21426 36.4285 7.73457 36.4285 7.14284C36.4285 6.5511 35.9488 6.07141 35.3571 6.07141C34.7653 6.07141 34.2856 6.5511 34.2856 7.14284C34.2856 7.73457 34.7653 8.21426 35.3571 8.21426Z" fill="#292D32"/>
<path d="M25.2671 33.0957L22.6336 32.2143C23.3918 31.659 23.9551 30.8783 24.2429 29.9836C24.5308 29.089 24.5285 28.1263 24.2364 27.233C23.9442 26.3398 23.3772 25.5617 22.6164 25.01C21.8556 24.4583 20.9398 24.1613 20 24.1613C19.0602 24.1613 18.1444 24.4583 17.3836 25.01C16.6228 25.5617 16.0558 26.3398 15.7636 27.233C15.4715 28.1263 15.4692 29.089 15.7571 29.9836C16.0449 30.8783 16.6082 31.659 17.3664 32.2143L14.7329 33.0921C13.9639 33.348 13.2951 33.8396 12.8213 34.4971C12.3476 35.1546 12.0929 35.9446 12.0936 36.755V38.3836C12.0934 38.8117 12.2631 39.2224 12.5655 39.5255C12.868 39.8286 13.2783 39.9992 13.7064 40H26.2936C26.7212 39.9992 27.1311 39.829 27.4334 39.5265C27.7358 39.224 27.9059 38.8141 27.9064 38.3864V36.7579C27.9067 35.9471 27.6514 35.157 27.177 34.4996C26.7026 33.8421 26.0331 33.3509 25.2636 33.0957H25.2671ZM20 25.595C20.5997 25.595 21.186 25.7729 21.6846 26.1061C22.1833 26.4393 22.5719 26.9129 22.8014 27.467C23.0309 28.0211 23.0909 28.6308 22.9738 29.219C22.8568 29.8072 22.5679 30.3474 22.1438 30.7715C21.7197 31.1955 21.1793 31.4842 20.5911 31.6011C20.0029 31.718 19.3932 31.6579 18.8392 31.4283C18.2851 31.1987 17.8116 30.8099 17.4785 30.3112C17.1454 29.8125 16.9677 29.2262 16.9679 28.6264C16.9679 28.2283 17.0463 27.834 17.1987 27.4662C17.3511 27.0984 17.5744 26.7642 17.856 26.4827C18.1376 26.2012 18.4718 25.9779 18.8397 25.8256C19.2076 25.6733 19.6018 25.5949 20 25.595ZM26.4786 38.3864C26.4784 38.4356 26.4587 38.4826 26.4239 38.5173C26.3891 38.552 26.342 38.5714 26.2929 38.5714H13.7071C13.658 38.5714 13.6109 38.552 13.5761 38.5173C13.5413 38.4826 13.5216 38.4356 13.5214 38.3864V36.7579C13.521 36.2472 13.6815 35.7494 13.9801 35.3353C14.2788 34.9211 14.7004 34.6116 15.185 34.4507C16.9336 33.9614 19.5729 32.555 21.4079 33.315L24.815 34.4507C25.2995 34.6117 25.7209 34.9213 26.0195 35.3354C26.318 35.7496 26.4784 36.2473 26.4779 36.7579L26.4786 38.3864ZM24.46 15.1108C24.4604 14.3488 24.2655 13.5995 23.8939 12.9343C23.5222 12.2691 22.9862 11.7103 22.3371 11.3112C21.688 10.9122 20.9474 10.6862 20.1861 10.6549C19.4248 10.6236 18.6682 10.7879 17.9884 11.1323C17.3087 11.4767 16.7287 11.9895 16.3036 12.6219C15.8786 13.2543 15.6228 13.9851 15.5606 14.7446C15.4984 15.504 15.632 16.2667 15.9485 16.9598C16.265 17.6529 16.7539 18.2533 17.3686 18.7036L14.73 19.5836C14.048 19.8144 13.4435 20.2301 12.984 20.7844C12.5245 21.3388 12.2281 22.0099 12.1279 22.7229C12.1143 22.8163 12.1195 22.9115 12.143 23.0029C12.1664 23.0943 12.2078 23.1802 12.2647 23.2555C12.3215 23.3309 12.3928 23.3942 12.4743 23.4418C12.5557 23.4895 12.6459 23.5205 12.7394 23.5331C12.833 23.5457 12.9281 23.5396 13.0193 23.5153C13.1105 23.4909 13.1959 23.4487 13.2707 23.3911C13.3455 23.3335 13.4081 23.2616 13.4549 23.1796C13.5018 23.0977 13.5319 23.0073 13.5436 22.9136C13.6072 22.4644 13.7946 22.0417 14.0847 21.693C14.3749 21.3442 14.7563 21.083 15.1864 20.9386C16.1993 20.6615 18.9721 19.4965 20.0029 19.5708C21.02 19.4943 23.8271 20.6643 24.8179 20.9379C25.248 21.0824 25.6295 21.3437 25.9197 21.6926C26.2098 22.0415 26.3971 22.4643 26.4607 22.9136C26.4724 23.0073 26.5025 23.0977 26.5494 23.1796C26.5962 23.2616 26.6588 23.3335 26.7336 23.3911C26.8084 23.4487 26.8938 23.4909 26.985 23.5153C27.0762 23.5396 27.1713 23.5457 27.2649 23.5331C27.3584 23.5205 27.4485 23.4895 27.53 23.4418C27.6115 23.3942 27.6827 23.3309 27.7396 23.2555C27.7965 23.1802 27.8379 23.0943 27.8613 23.0029C27.8848 22.9115 27.8899 22.8163 27.8764 22.7229C27.7761 22.0097 27.4795 21.3385 27.0197 20.7841C26.56 20.2298 25.9552 19.8141 25.2729 19.5836L22.6357 18.7036C23.2016 18.2908 23.6622 17.7503 23.9799 17.126C24.2976 16.5017 24.4636 15.8113 24.4643 15.1108H24.46ZM19.9929 18.1429C19.3933 18.1422 18.8074 17.9637 18.3093 17.63C17.8112 17.2963 17.4232 16.8224 17.1944 16.2683C16.9656 15.7141 16.9063 15.1045 17.024 14.5166C17.1416 13.9287 17.431 13.3889 17.8554 12.9654C18.2799 12.542 18.8204 12.2539 19.4085 12.1376C19.9967 12.0213 20.6062 12.0821 21.1598 12.3122C21.7135 12.5423 22.1864 12.9314 22.519 13.4303C22.8515 13.9292 23.0286 14.5155 23.0279 15.1151C23.0274 15.5131 22.9485 15.9072 22.7957 16.2749C22.643 16.6425 22.4193 16.9764 22.1374 17.2575C21.8556 17.5387 21.5212 17.7616 21.1532 17.9135C20.7852 18.0654 20.391 18.1434 19.9929 18.1429ZM37.3621 31.6757L34.725 30.7972C35.4847 30.2419 36.0493 29.4607 36.3382 28.5652C36.627 27.6697 36.6253 26.7058 36.3333 25.8114C36.0413 24.9169 35.4739 24.1377 34.7122 23.5852C33.9506 23.0326 33.0338 22.7351 32.0929 22.7351C31.1519 22.7351 30.2351 23.0326 29.4735 23.5852C28.7118 24.1377 28.1444 24.9169 27.8524 25.8114C27.5604 26.7058 27.5587 27.6697 27.8475 28.5652C28.1364 29.4607 28.701 30.2419 29.4607 30.7972L27.5957 31.4186C27.5066 31.4483 27.4242 31.4952 27.3532 31.5567C27.2823 31.6183 27.2241 31.6932 27.1821 31.7772C27.0972 31.9468 27.0833 32.1433 27.1432 32.3232C27.2032 32.5032 27.3322 32.652 27.5018 32.7368C27.6715 32.8217 27.8679 32.8357 28.0479 32.7757C29.0079 32.5079 31.0921 31.6022 32.0836 31.665C33.1029 31.5864 35.9171 32.7579 36.91 33.0329C37.3941 33.194 37.8152 33.5036 38.1134 33.9176C38.4116 34.3316 38.5719 34.829 38.5714 35.3393V36.9607C38.572 36.9853 38.5676 37.0097 38.5585 37.0325C38.5494 37.0553 38.5357 37.076 38.5183 37.0933C38.501 37.1107 38.4803 37.1244 38.4575 37.1335C38.4347 37.1426 38.4103 37.147 38.3857 37.1464H30.05C29.8606 37.1464 29.6789 37.2217 29.5449 37.3556C29.411 37.4896 29.3357 37.6713 29.3357 37.8607C29.3357 38.0501 29.411 38.2318 29.5449 38.3658C29.6789 38.4997 29.8606 38.575 30.05 38.575H38.3857C38.8137 38.5746 39.2241 38.4044 39.5268 38.1018C39.8294 37.7991 39.9996 37.3887 40 36.9607V35.3393C40.0009 34.5289 39.7465 33.7389 39.273 33.0813C38.7995 32.4237 38.1309 31.9319 37.3621 31.6757ZM32.0836 30.235C31.484 30.234 30.8982 30.0553 30.4002 29.7213C29.9023 29.3874 29.5145 28.9133 29.286 28.359C29.0575 27.8048 28.9984 27.1951 29.1164 26.6073C29.2343 26.0194 29.5239 25.4798 29.9486 25.0565C30.3732 24.6333 30.9138 24.3455 31.5021 24.2295C32.0903 24.1135 32.6997 24.1745 33.2533 24.4048C33.8068 24.6352 34.2796 25.0245 34.6119 25.5236C34.9442 26.0227 35.121 26.609 35.12 27.2086C35.1193 27.6067 35.0403 28.0007 34.8873 28.3683C34.7344 28.7358 34.5105 29.0696 34.2286 29.3507C33.9466 29.6317 33.6121 29.8544 33.244 30.0062C32.876 30.1579 32.4817 30.2357 32.0836 30.235ZM3.09001 33.0314L6.5 31.895C7.41392 31.5863 8.40395 31.5863 9.31786 31.895L11.9536 32.7736C12.1335 32.8334 12.3299 32.8194 12.4995 32.7344C12.6691 32.6495 12.798 32.5007 12.8579 32.3207C12.9177 32.1408 12.9036 31.9444 12.8187 31.7748C12.7338 31.6052 12.585 31.4763 12.405 31.4164L10.54 30.795C11.2986 30.2399 11.8622 29.4592 12.1504 28.5646C12.4385 27.6699 12.4365 26.707 12.1445 25.8135C11.8525 24.9201 11.2855 24.1418 10.5246 23.59C9.76371 23.0381 8.84782 22.741 7.90786 22.741C6.96791 22.741 6.05201 23.0381 5.2911 23.59C4.53019 24.1418 3.96321 24.9201 3.67123 25.8135C3.37924 26.707 3.37718 27.6699 3.66535 28.5646C3.95353 29.4592 4.51717 30.2399 5.27572 30.795L2.63858 31.6736C1.86918 31.9298 1.20011 32.4219 0.72643 33.0801C0.252752 33.7383 -0.00143024 34.5291 6.05355e-06 35.34V36.9614C0.000573387 37.3893 0.170854 37.7995 0.473489 38.102C0.776124 38.4045 1.1864 38.5746 1.61429 38.575H9.95C10.1394 38.575 10.3211 38.4997 10.4551 38.3658C10.589 38.2318 10.6643 38.0501 10.6643 37.8607C10.6643 37.6713 10.589 37.4896 10.4551 37.3556C10.3211 37.2217 10.1394 37.1464 9.95 37.1464H1.61429C1.58974 37.147 1.56533 37.1426 1.54253 37.1335C1.51974 37.1244 1.49903 37.1107 1.48166 37.0933C1.4643 37.076 1.45064 37.0553 1.44152 37.0325C1.43239 37.0097 1.42799 36.9853 1.42858 36.9607V35.3393C1.42781 34.8288 1.58793 34.3311 1.88618 33.9168C2.18444 33.5025 2.60566 33.1927 3.09001 33.0314ZM7.90715 24.1743C8.50671 24.1752 9.09255 24.3538 9.59059 24.6876C10.0886 25.0214 10.4765 25.4954 10.7052 26.0496C10.9338 26.6039 10.993 27.2135 10.8752 27.8013C10.7574 28.3892 10.4679 28.9289 10.0434 29.3523C9.61882 29.7757 9.07826 30.0636 8.49006 30.1797C7.90185 30.2959 7.29242 30.235 6.73882 30.0048C6.18523 29.7745 5.71233 29.3853 5.37994 28.8863C5.04755 28.3874 4.87059 27.801 4.87143 27.2015C4.872 26.8034 4.95096 26.4093 5.10383 26.0417C5.25669 25.6741 5.48046 25.3403 5.76235 25.0592C6.04424 24.7781 6.37874 24.5552 6.74674 24.4034C7.11475 24.2516 7.50905 24.1738 7.90715 24.1743Z" fill="#292D32"/>
</svg>
