<svg width="24" height="25" viewBox="0 0 24 25" fill="none" xmlns="http://www.w3.org/2000/svg">
<path d="M7.3901 23.0277H7.5001C11.2241 23.0277 13.0191 21.2337 13.3291 17.2157C13.3589 17.029 13.3166 16.838 13.2108 16.6815C13.1049 16.5249 12.9434 16.4145 12.7591 16.3727C12.6678 16.373 12.5776 16.3915 12.4935 16.427C12.4094 16.4624 12.3332 16.5142 12.2692 16.5793C12.2053 16.6444 12.1548 16.7215 12.1208 16.8062C12.0868 16.8908 12.0699 16.9814 12.0711 17.0727C11.8281 20.2917 10.5861 21.4907 7.4911 21.4907H7.3821C3.9681 21.4907 2.7601 20.0147 2.7601 15.8427V9.15866C2.7601 4.98666 3.9681 3.51066 7.3821 3.51066H7.4911C10.6031 3.51066 11.8441 4.73066 12.0711 8.01066C12.1131 8.43066 12.4071 8.74866 12.7591 8.71066C12.945 8.67235 13.109 8.5639 13.217 8.40785C13.325 8.25179 13.3687 8.06012 13.3391 7.87266C13.0521 3.79766 11.2491 1.97266 7.5001 1.97266H7.3911C3.2731 1.97266 1.5111 4.12566 1.5111 9.15866V15.8417C1.5111 20.8727 3.2721 23.0277 7.3901 23.0277Z" fill="#000000"/>
<path d="M11.419 13.1286H20.964C21.1304 13.1273 21.2897 13.0606 21.4073 12.9429C21.525 12.8253 21.5917 12.666 21.593 12.4996C21.5917 12.3332 21.525 12.174 21.4073 12.0563C21.2897 11.9386 21.1304 11.8719 20.964 11.8706H11.419C11.2531 11.8727 11.0947 11.9397 10.9776 12.0573C10.8606 12.1749 10.7943 12.3337 10.793 12.4996C10.7943 12.6655 10.8606 12.8243 10.9776 12.9419C11.0947 13.0595 11.2531 13.1265 11.419 13.1286Z" fill="#000000"/>
<path d="M19.0929 15.9397C19.1757 15.94 19.2577 15.9238 19.3341 15.892C19.4105 15.8602 19.4798 15.8135 19.5379 15.7547L22.3479 12.9447C22.4648 12.8262 22.5303 12.6665 22.5303 12.5002C22.5303 12.3338 22.4648 12.1741 22.3479 12.0557L19.5379 9.24566C19.4187 9.13447 19.261 9.07391 19.098 9.07676C18.935 9.0796 18.7795 9.14561 18.6642 9.26089C18.5489 9.37617 18.4829 9.5317 18.48 9.6947C18.4772 9.8577 18.5378 10.0154 18.6489 10.1347L21.0139 12.5007L18.6489 14.8637C18.5321 14.9821 18.4666 15.1418 18.4666 15.3082C18.4666 15.4745 18.5321 15.6342 18.6489 15.7527C18.7063 15.8124 18.7753 15.8599 18.8516 15.892C18.928 15.9242 19.0101 15.9404 19.0929 15.9397Z" fill="#000000"/>
</svg>
