<svg xmlns="http://www.w3.org/2000/svg" xmlns:xlink="http://www.w3.org/1999/xlink" width="27" height="22.218" viewBox="0 0 27 22.218"><defs><linearGradient id="a" x1="0.5" x2="0.5" y2="1" gradientUnits="objectBoundingBox"><stop offset="0" stop-color="#ffdc5e"/><stop offset="1" stop-color="#f6a303"/></linearGradient><linearGradient id="b" x1="0.5" x2="0.5" y2="1" gradientUnits="objectBoundingBox"><stop offset="0" stop-color="#ff8a3d"/><stop offset="1" stop-color="#e54e00"/></linearGradient></defs><path d="M5.065,0H21.935A5.065,5.065,0,0,1,27,5.065V17.153a5.065,5.065,0,0,1-5.065,5.065H5.065A5.065,5.065,0,0,1,0,17.153V5.065A5.065,5.065,0,0,1,5.065,0Z" fill="url(#a)"/><path d="M33,29.157V26.718C33,24.666,30.862,23,28.23,23H10.77C8.137,23,6,24.666,6,26.718v2.193l13.163,5.134a.918.918,0,0,0,.66.006Z" transform="translate(-6 -23)" fill="url(#b)"/><ellipse cx="3.375" cy="2.813" rx="3.375" ry="2.813" transform="translate(9 14.625)" fill="rgba(0,0,0,0)"/></svg>