<svg xmlns="http://www.w3.org/2000/svg" width="24.676" height="24.676" viewBox="0 0 24.676 24.676">
  <g id="vuesax_outline_airplane" transform="translate(0 0)">
    <g id="airplane" transform="translate(0 0)">
      <path id="Vector" d="M6.518,21.7a1.736,1.736,0,0,1-.679-.134,1.815,1.815,0,0,1-1.018-1.11L4.37,19.1A1.908,1.908,0,0,1,4.8,17.247L7.135,14.9a.407.407,0,0,0,.072-.2v-2.54L2.519,14.194a1.831,1.831,0,0,1-1.748-.082A1.829,1.829,0,0,1,0,12.549V11.222A2.786,2.786,0,0,1,1.635,8.775L7.2,6.369V3.449A3.971,3.971,0,0,1,9.181.2a1.851,1.851,0,0,1,1.676,0,3.941,3.941,0,0,1,1.995,3.239v2.92l5.593,2.406a2.806,2.806,0,0,1,1.614,2.457v1.326a1.792,1.792,0,0,1-.771,1.563,1.861,1.861,0,0,1-1.748.093l-4.688-2.025v2.54a.373.373,0,0,0,.072.175l2.344,2.354A1.908,1.908,0,0,1,15.7,19.1l-.452,1.357A1.818,1.818,0,0,1,12.729,21.5a1.339,1.339,0,0,1-.154-.1l-2.4-2.015a.278.278,0,0,0-.319,0L7.464,21.4a.431.431,0,0,1-.144.093A1.581,1.581,0,0,1,6.518,21.7ZM7.526,10.482a1.149,1.149,0,0,1,.658.2,1.289,1.289,0,0,1,.565,1.11v2.93a1.948,1.948,0,0,1-.524,1.275L5.891,18.337a.414.414,0,0,0-.062.267l.452,1.367a.261.261,0,0,0,.144.165.212.212,0,0,0,.144.01l2.3-1.943a1.815,1.815,0,0,1,2.313,0l2.293,1.933a.334.334,0,0,0,.154-.01.27.27,0,0,0,.154-.165L14.24,18.6a.386.386,0,0,0-.062-.267l-2.334-2.344a1.9,1.9,0,0,1-.535-1.275v-2.93a1.291,1.291,0,0,1,.545-1.1,1.275,1.275,0,0,1,1.234-.082l5.059,2.18a.4.4,0,0,0,.288.041c.031-.021.072-.113.072-.278V11.222a1.28,1.28,0,0,0-.679-1.038L12.091,7.706a1.328,1.328,0,0,1-.771-1.182V3.439a2.354,2.354,0,0,0-1.152-1.861.328.328,0,0,0-.278,0A2.43,2.43,0,0,0,8.75,3.449V6.534a1.339,1.339,0,0,1-.771,1.182L2.241,10.194a1.266,1.266,0,0,0-.689,1.028v1.326c0,.165.041.257.072.278a.4.4,0,0,0,.288-.041l5.048-2.18A1.4,1.4,0,0,1,7.526,10.482Z" transform="translate(2.303 1.486)" fill="#da12f9"/>
      <path id="Vector-2" d="M0,0H24.676V24.676H0Z" fill="none" opacity="0"/>
    </g>
  </g>
</svg>
