<svg width="40" height="40" viewBox="0 0 40 40" fill="none" xmlns="http://www.w3.org/2000/svg">
<path d="M36.4288 32.3857H3.57291C2.62623 32.3847 1.71855 31.9817 1.04881 31.265C0.379067 30.5483 0.00190892 29.5764 0 28.5623L0 6.67558C0.000954845 5.66083 0.377692 4.68793 1.04754 3.97039C1.71738 3.25285 2.62561 2.84929 3.57291 2.84827H20.6483C20.8555 2.84827 21.0542 2.93644 21.2007 3.09338C21.3472 3.25032 21.4295 3.46318 21.4295 3.68513C21.4295 3.90708 21.3472 4.11994 21.2007 4.27688C21.0542 4.43382 20.8555 4.52199 20.6483 4.52199H3.57291C3.03988 4.5226 2.52885 4.7497 2.15195 5.15344C1.77504 5.55718 1.56304 6.1046 1.56247 6.67558V28.5623C1.56304 29.1333 1.77504 29.6807 2.15195 30.0844C2.52885 30.4882 3.03988 30.7153 3.57291 30.7159H36.4288C36.9615 30.7146 37.4719 30.4873 37.8484 30.0836C38.2248 29.6799 38.4365 29.1329 38.4371 28.5623V11.6983C38.4371 11.4763 38.5194 11.2635 38.6659 11.1065C38.8124 10.9496 39.0111 10.8614 39.2183 10.8614C39.4255 10.8614 39.6242 10.9496 39.7707 11.1065C39.9173 11.2635 39.9996 11.4763 39.9996 11.6983V28.5623C39.9977 29.576 39.6208 30.5475 38.9515 31.2642C38.2822 31.9808 37.3751 32.3841 36.4288 32.3857Z" fill="#292D32"/>
<path d="M26.1803 39.9122C26.0491 39.9122 25.9199 39.8768 25.8048 39.8093C25.6897 39.7418 25.5923 39.6443 25.5217 39.5258L21.0218 31.9987C20.9123 31.8118 20.876 31.5861 20.921 31.3708C20.966 31.1554 21.0886 30.9678 21.2621 30.8488C21.4356 30.7298 21.6459 30.689 21.8474 30.7353C22.0488 30.7816 22.225 30.9113 22.3376 31.0961L26.8367 38.6232C26.9125 38.7497 26.9551 38.8956 26.96 39.0457C26.965 39.1958 26.9321 39.3446 26.8649 39.4764C26.7977 39.6083 26.6986 39.7183 26.578 39.795C26.4574 39.8716 26.3205 39.9121 26.1803 39.9122ZM13.819 39.9122C13.6788 39.9121 13.5412 39.8716 13.4206 39.795C13.3 39.7183 13.2009 39.6083 13.1337 39.4764C13.0665 39.3446 13.0336 39.1958 13.0386 39.0457C13.0435 38.8956 13.0861 38.7497 13.1619 38.6232L17.6617 31.0961C17.7743 30.9113 17.9505 30.7816 18.152 30.7353C18.3534 30.689 18.5637 30.7298 18.7372 30.8488C18.9107 30.9678 19.0333 31.1554 19.0783 31.3708C19.1233 31.5861 19.0871 31.8118 18.9775 31.9987L14.4776 39.5258C14.407 39.6443 14.3096 39.7418 14.1945 39.8093C14.0794 39.8768 13.9503 39.9122 13.819 39.9122Z" fill="#292D32"/>
<path d="M29.5997 40H10.4006C10.298 40 10.1964 39.9783 10.1017 39.9363C10.0069 39.8942 9.92075 39.8326 9.8482 39.7548C9.77566 39.6771 9.71811 39.5849 9.67885 39.4833C9.63959 39.3818 9.61938 39.273 9.61938 39.1631C9.61938 39.0532 9.63959 38.9444 9.67885 38.8428C9.71811 38.7413 9.77566 38.649 9.8482 38.5713C9.92075 38.4936 10.0069 38.432 10.1017 38.3899C10.1964 38.3479 10.298 38.3262 10.4006 38.3262H29.5997C29.7023 38.3262 29.8039 38.3479 29.8987 38.3899C29.9934 38.432 30.0796 38.4936 30.1521 38.5713C30.2246 38.649 30.2822 38.7413 30.3215 38.8428C30.3607 38.9444 30.3809 39.0532 30.3809 39.1631C30.3809 39.273 30.3607 39.3818 30.3215 39.4833C30.2822 39.5849 30.2246 39.6771 30.1521 39.7548C30.0796 39.8326 29.9934 39.8942 29.8987 39.9363C29.8039 39.9783 29.7023 40 29.5997 40ZM19.9111 18.2609C19.0508 18.2609 18.2098 17.9876 17.4944 17.4756C16.7791 16.9636 16.2216 16.2359 15.8924 15.3844C15.5631 14.533 15.477 13.5961 15.6448 12.6923C15.8127 11.7884 16.2269 10.9582 16.8353 10.3065C17.4436 9.65487 18.2187 9.2111 19.0625 9.03131C19.9062 8.85152 20.7808 8.94379 21.5757 9.29646C22.3705 9.64913 23.0498 10.2464 23.5278 11.0126C24.0058 11.7789 24.2609 12.6797 24.2609 13.6013C24.2609 14.8371 23.8026 16.0223 22.9869 16.8961C22.1711 17.7699 21.0647 18.2609 19.9111 18.2609ZM19.9111 10.6155C19.3598 10.6155 18.8209 10.7906 18.3625 11.1187C17.9041 11.4468 17.5469 11.9131 17.3359 12.4587C17.1249 13.0043 17.0697 13.6046 17.1773 14.1838C17.2848 14.763 17.5503 15.295 17.9401 15.7126C18.3299 16.1302 18.8266 16.4145 19.3673 16.5298C19.908 16.645 20.4684 16.5858 20.9777 16.3598C21.4871 16.1339 21.9224 15.7512 22.2287 15.2601C22.5349 14.7691 22.6984 14.1919 22.6984 13.6013C22.698 12.8097 22.4042 12.0506 21.8815 11.491C21.3588 10.9314 20.6501 10.617 19.9111 10.617V10.6155Z" fill="#292D32"/>
<path d="M25.2662 26.2897H14.5583C14.3511 26.2897 14.1524 26.2015 14.0059 26.0446C13.8594 25.8876 13.7771 25.6748 13.7771 25.4528V23.1594C13.7771 21.4168 14.4233 19.7455 15.5736 18.5133C16.7239 17.2811 18.2841 16.5889 19.9109 16.5889C21.5376 16.5889 23.0978 17.2811 24.2481 18.5133C25.3984 19.7455 26.0446 21.4168 26.0446 23.1594V25.4521C26.0448 25.6736 25.963 25.8862 25.8171 26.0432C25.6711 26.2002 25.4731 26.2889 25.2662 26.2897ZM15.3396 24.616H24.4821V23.1594C24.4821 21.8607 24.0005 20.6152 23.1432 19.6968C22.2859 18.7785 21.1232 18.2626 19.9109 18.2626C18.6985 18.2626 17.5357 18.7785 16.6785 19.6968C15.8212 20.6152 15.3396 21.8607 15.3396 23.1594V24.616ZM34.6901 10.6103H24.9669C24.5111 10.6099 24.0741 10.4158 23.7518 10.0705C23.4295 9.72527 23.2483 9.25714 23.2479 8.7689V1.84141C23.2483 1.35316 23.4295 0.885029 23.7518 0.539787C24.0741 0.194545 24.5111 0.000409259 24.9669 0H34.6901C35.1459 0.000409259 35.5829 0.194545 35.9052 0.539787C36.2275 0.885029 36.4088 1.35316 36.4091 1.84141V8.76967C36.4088 9.25792 36.2275 9.72605 35.9052 10.0713C35.5829 10.4165 35.1459 10.6099 34.6901 10.6103ZM24.9669 1.67373C24.9254 1.67373 24.8855 1.69139 24.8562 1.72284C24.8268 1.75428 24.8103 1.79693 24.8103 1.84141V8.76967C24.8103 8.81414 24.8268 8.85679 24.8562 8.88824C24.8855 8.91968 24.9254 8.93735 24.9669 8.93735H34.6901C34.7316 8.93735 34.7715 8.91968 34.8008 8.88824C34.8302 8.85679 34.8467 8.81414 34.8467 8.76967V1.84141C34.8467 1.79693 34.8302 1.75428 34.8008 1.72284C34.7715 1.69139 34.7316 1.67373 34.6901 1.67373H24.9669Z" fill="#292D32"/>
<path d="M39.2189 8.96447C39.0949 8.96434 38.9727 8.93255 38.8625 8.87174L35.2716 6.89665C35.1439 6.82635 35.0367 6.7197 34.9619 6.58843C34.887 6.45715 34.8474 6.30633 34.8474 6.15252V4.35825C34.8474 4.2015 34.8886 4.04792 34.9661 3.91499C35.0437 3.78206 35.1545 3.67513 35.286 3.60638L38.8769 1.73175C38.9961 1.66961 39.1281 1.64097 39.2604 1.64852C39.3928 1.65608 39.5212 1.69958 39.6335 1.77493C39.7458 1.85028 39.8384 1.955 39.9026 2.07925C39.9667 2.2035 40.0003 2.34318 40.0001 2.48516V8.12606C40.0003 8.23609 39.9802 8.34508 39.941 8.44679C39.9019 8.5485 39.8444 8.64094 39.7718 8.71881C39.6992 8.79668 39.613 8.85846 39.5182 8.90062C39.4233 8.94277 39.3216 8.96447 39.2189 8.96447ZM36.4092 5.64174L38.4398 6.75679V3.82043L36.4113 4.87906L36.4092 5.64174Z" fill="#292D32"/>
</svg>
