<svg width="40" height="40" viewBox="0 0 40 40" fill="none" xmlns="http://www.w3.org/2000/svg">
<path d="M32.3459 11.6209C32.5535 11.6209 32.7526 11.5384 32.8994 11.3916C33.0462 11.2449 33.1287 11.0458 33.1287 10.8382V2.34382C33.1276 1.7223 32.88 1.12658 32.4404 0.687233C32.0008 0.247886 31.4049 0.00075233 30.7833 0H2.34326C1.72207 0.00131657 1.12671 0.248699 0.687528 0.687985C0.248346 1.12727 0.00112804 1.72267 0 2.34382V37.6562C0.00112804 38.2773 0.248346 38.8727 0.687528 39.312C1.12671 39.7513 1.72207 39.9987 2.34326 40H30.7833C31.4046 39.9989 32.0001 39.7516 32.4395 39.3123C32.8788 38.873 33.1261 38.2775 33.1273 37.6562V31.9005C33.1273 31.6929 33.0448 31.4939 32.898 31.3471C32.7512 31.2003 32.5521 31.1178 32.3445 31.1178C32.1369 31.1178 31.9378 31.2003 31.791 31.3471C31.6442 31.4939 31.5618 31.6929 31.5618 31.9005V37.6562C31.5618 37.8638 31.4793 38.0628 31.3325 38.2096C31.1857 38.3564 30.9866 38.4389 30.779 38.4389H2.34326C2.13566 38.4389 1.93657 38.3564 1.78977 38.2096C1.64298 38.0628 1.56051 37.8638 1.56051 37.6562V2.34382C1.56164 2.13697 1.64461 1.93899 1.79128 1.79313C1.93795 1.64726 2.1364 1.56539 2.34326 1.56539H30.7833C30.9909 1.56539 31.19 1.64785 31.3368 1.79464C31.4836 1.94142 31.566 2.1405 31.566 2.34809V10.8439C31.5675 11.05 31.6503 11.2472 31.7963 11.3927C31.9423 11.5381 32.1398 11.6201 32.3459 11.6209Z" fill="#292D32"/>
<path d="M16.5636 4.21887C15.125 4.21954 13.7196 4.65195 12.5294 5.46013C11.3392 6.26831 10.419 7.41506 9.88778 8.752C9.35659 10.0889 9.23889 11.5545 9.54991 12.9591C9.86093 14.3636 10.5864 15.6425 11.6323 16.6303C11.6583 16.6584 11.6864 16.6846 11.7163 16.7086C13.0394 17.9211 14.7689 18.5937 16.5636 18.5937C18.3583 18.5937 20.0879 17.9211 21.411 16.7086C21.4408 16.6846 21.4689 16.6584 21.4949 16.6303C22.5409 15.6425 23.2663 14.3636 23.5774 12.9591C23.8884 11.5545 23.7707 10.0889 23.2395 8.752C22.7083 7.41506 21.7881 6.26831 20.5979 5.46013C19.4077 4.65195 18.0023 4.21954 16.5636 4.21887ZM16.5636 17.0316C15.336 17.0328 14.1421 16.6303 13.1658 15.886C13.5067 15.2853 14.0007 14.7856 14.5976 14.438C15.1945 14.0905 15.8729 13.9073 16.5636 13.9073C17.2544 13.9073 17.9328 14.0905 18.5297 14.438C19.1265 14.7856 19.6206 15.2853 19.9615 15.886C18.9852 16.6303 17.7913 17.0328 16.5636 17.0316ZM15.3134 11.0938V10.5857C15.3094 10.4191 15.3388 10.2534 15.3998 10.0982C15.4608 9.94313 15.5523 9.80178 15.6687 9.68252C15.7852 9.56326 15.9243 9.46848 16.0779 9.40378C16.2316 9.33907 16.3966 9.30574 16.5633 9.30574C16.73 9.30574 16.895 9.33907 17.0486 9.40378C17.2022 9.46848 17.3414 9.56326 17.4578 9.68252C17.5743 9.80178 17.6657 9.94313 17.7267 10.0982C17.7878 10.2534 17.8172 10.4191 17.8132 10.5857V11.0938C17.8054 11.4201 17.6703 11.7304 17.4367 11.9585C17.2032 12.1865 16.8897 12.3141 16.5633 12.3141C16.2369 12.3141 15.9234 12.1865 15.6898 11.9585C15.4563 11.7304 15.3212 11.4201 15.3134 11.0938ZM21.0908 14.7411C20.5206 13.8939 19.7226 13.225 18.7888 12.8114C19.1702 12.3201 19.377 11.7157 19.3765 11.0938V10.5857C19.3648 9.84761 19.0633 9.14367 18.5371 8.62583C18.011 8.10799 17.3023 7.81776 16.564 7.81776C15.8257 7.81776 15.117 8.10799 14.5908 8.62583C14.0647 9.14367 13.7632 9.84761 13.7514 10.5857V11.0938C13.751 11.7157 13.9578 12.3201 14.3392 12.8114C13.4054 13.225 12.6074 13.8939 12.0372 14.7411C11.4193 13.9036 11.046 12.911 10.9587 11.8739C10.8714 10.8368 11.0736 9.79579 11.5428 8.86674C12.012 7.9377 12.7297 7.15704 13.6162 6.61163C14.5027 6.06622 15.5231 5.77744 16.564 5.77744C17.6048 5.77744 18.6253 6.06622 19.5118 6.61163C20.3983 7.15704 21.116 7.9377 21.5852 8.86674C22.0544 9.79579 22.2566 10.8368 22.1693 11.8739C22.082 12.911 21.7086 13.9036 21.0908 14.7411ZM20.7826 34.2189H16.5636C16.356 34.2189 16.1569 34.3013 16.0101 34.4481C15.8634 34.5949 15.7809 34.794 15.7809 35.0016C15.7809 35.2092 15.8634 35.4082 16.0101 35.555C16.1569 35.7018 16.356 35.7843 16.5636 35.7843H20.7826C20.9902 35.7843 21.1893 35.7018 21.3361 35.555C21.4829 35.4082 21.5654 35.2092 21.5654 35.0016C21.5654 34.794 21.4829 34.5949 21.3361 34.4481C21.1893 34.3013 20.9902 34.2189 20.7826 34.2189ZM20.7826 29.8436H9.68756C9.47996 29.8436 9.28086 29.9261 9.13407 30.0729C8.98728 30.2196 8.90481 30.4187 8.90481 30.6263C8.90481 30.8339 8.98728 31.033 9.13407 31.1797C9.28086 31.3265 9.47996 31.409 9.68756 31.409H20.7826C20.9902 31.409 21.1893 31.3265 21.3361 31.1797C21.4829 31.033 21.5654 30.8339 21.5654 30.6263C21.5654 30.4187 21.4829 30.2196 21.3361 30.0729C21.1893 29.9261 20.9902 29.8436 20.7826 29.8436ZM20.7826 25.4683H9.68756C9.47996 25.4683 9.28086 25.5508 9.13407 25.6976C8.98728 25.8444 8.90481 26.0434 8.90481 26.251C8.90481 26.4586 8.98728 26.6577 9.13407 26.8045C9.28086 26.9513 9.47996 27.0337 9.68756 27.0337H20.7826C20.9902 27.0337 21.1893 26.9513 21.3361 26.8045C21.4829 26.6577 21.5654 26.4586 21.5654 26.251C21.5654 26.0434 21.4829 25.8444 21.3361 25.6976C21.1893 25.5508 20.9902 25.4683 20.7826 25.4683ZM6.90667 21.3222C6.77861 21.1941 6.61007 21.1143 6.4298 21.0966C6.24952 21.0788 6.06866 21.1241 5.91806 21.2248C5.76746 21.3255 5.65644 21.4753 5.60392 21.6486C5.55141 21.822 5.56066 22.0082 5.63009 22.1755C5.69951 22.3428 5.82483 22.4808 5.98466 22.5661C6.14449 22.6513 6.32895 22.6785 6.50658 22.643C6.68421 22.6075 6.84402 22.5114 6.95876 22.3713C7.0735 22.2311 7.13607 22.0555 7.1358 21.8743C7.1339 21.6671 7.05029 21.4689 6.90312 21.3229L6.90667 21.3222ZM6.90667 25.6975C6.77861 25.5693 6.61007 25.4896 6.4298 25.4718C6.24952 25.4541 6.06866 25.4994 5.91806 25.6001C5.76746 25.7007 5.65644 25.8505 5.60392 26.0239C5.55141 26.1972 5.56066 26.3834 5.63009 26.5508C5.69951 26.7181 5.82483 26.8561 5.98466 26.9414C6.14449 27.0266 6.32895 27.0538 6.50658 27.0183C6.68421 26.9827 6.84402 26.8867 6.95876 26.7465C7.0735 26.6064 7.13607 26.4307 7.1358 26.2496C7.13393 26.0421 7.05033 25.8437 6.90312 25.6975H6.90667ZM6.90667 30.0727C6.77861 29.9446 6.61007 29.8649 6.4298 29.8471C6.24952 29.8294 6.06866 29.8747 5.91806 29.9753C5.76746 30.076 5.65644 30.2258 5.60392 30.3991C5.55141 30.5725 5.56066 30.7587 5.63009 30.926C5.69951 31.0933 5.82483 31.2314 5.98466 31.3166C6.14449 31.4019 6.32895 31.4291 6.50658 31.3935C6.68421 31.358 6.84402 31.262 6.95876 31.1218C7.0735 30.9816 7.13607 30.806 7.1358 30.6249C7.13393 30.4174 7.05033 30.219 6.90312 30.0727H6.90667ZM20.7826 21.0938H9.68756C9.47996 21.0938 9.28086 21.1762 9.13407 21.323C8.98728 21.4698 8.90481 21.6689 8.90481 21.8765C8.90481 22.0841 8.98728 22.2831 9.13407 22.4299C9.28086 22.5767 9.47996 22.6592 9.68756 22.6592H20.7826C20.9902 22.6592 21.1893 22.5767 21.3361 22.4299C21.4829 22.2831 21.5654 22.0841 21.5654 21.8765C21.5654 21.6689 21.4829 21.4698 21.3361 21.323C21.1893 21.1762 20.9902 21.0938 20.7826 21.0938ZM38.3589 10.1816C37.9856 9.96603 37.5736 9.8261 37.1463 9.7698C36.719 9.7135 36.2848 9.74193 35.8685 9.85347C35.4522 9.96501 35.062 10.1575 34.72 10.4198C34.3781 10.6822 34.0913 11.0094 33.8759 11.3827L24.0467 28.4113C23.9929 28.5046 23.959 28.608 23.9471 28.7151L23.2547 34.914C23.2385 35.0648 23.2665 35.2169 23.3351 35.3521C23.4038 35.4872 23.5103 35.5995 23.6415 35.6753C23.7728 35.7511 23.9233 35.7872 24.0746 35.7791C24.226 35.771 24.3718 35.7192 24.4943 35.6299L29.5167 31.9298C29.6035 31.8659 29.6762 31.7848 29.7301 31.6915L39.5621 14.6629C39.9959 13.9091 40.1131 13.014 39.8879 12.174C39.6627 11.3339 39.1136 10.6174 38.361 10.1816H38.3589ZM25.0045 33.3124L25.366 30.0756L27.6274 31.3812L25.0045 33.3124ZM28.7667 30.2342L25.7872 28.5152L33.6773 14.8536L36.6546 16.5726L28.7645 30.2342H28.7667ZM38.208 13.8823L37.4381 15.2165L34.4615 13.4974L35.2314 12.1632C35.4631 11.7757 35.8378 11.4949 36.2748 11.3814C36.7117 11.2679 37.1758 11.3308 37.5668 11.5565C37.9578 11.7823 38.2442 12.1527 38.3643 12.5879C38.4844 13.0231 38.4278 13.488 38.208 13.8823Z" fill="#292D32"/>
</svg>
