<svg xmlns="http://www.w3.org/2000/svg" width="24.676" height="24.676" viewBox="0 0 24.676 24.676">
  <g id="vuesax_outline_tick-circle" transform="translate(0 0)">
    <g id="tick-circle" transform="translate(0 0)">
      <path id="Vector" d="M11.053,22.105A11.053,11.053,0,1,1,22.105,11.053,11.062,11.062,0,0,1,11.053,22.105Zm0-20.563a9.51,9.51,0,1,0,9.51,9.51A9.522,9.522,0,0,0,11.053,1.542Z" transform="translate(1.285 1.285)" fill="#28b200"/>
      <path id="Vector-2" d="M3.678,7.369a.77.77,0,0,1-.545-.226L.224,4.233a.771.771,0,0,1,1.09-1.09L3.678,5.508,8.963.224a.771.771,0,0,1,1.09,1.09l-5.83,5.83A.77.77,0,0,1,3.678,7.369Z" transform="translate(7.2 8.649)" fill="#28b200"/>
      <path id="Vector-3" d="M0,0H24.676V24.676H0Z" fill="none" opacity="0"/>
    </g>
  </g>
</svg>
