<svg width="40" height="40" viewBox="0 0 40 40" fill="none" xmlns="http://www.w3.org/2000/svg">
<g clip-path="url(#clip0_75_411)">
<path d="M20 0C23.9556 0 27.8224 1.17298 31.1114 3.37061C34.4004 5.56824 36.9638 8.69181 38.4776 12.3463C39.9913 16.0009 40.3874 20.0222 39.6157 23.9018C38.844 27.7814 36.9392 31.3451 34.1421 34.1421C31.3451 36.9392 27.7814 38.844 23.9018 39.6157C20.0222 40.3874 16.0009 39.9913 12.3463 38.4776C8.69181 36.9638 5.56824 34.4004 3.37061 31.1114C1.17298 27.8224 0 23.9556 0 20C0 14.6957 2.10714 9.60859 5.85786 5.85786C9.60859 2.10714 14.6957 0 20 0Z" fill="url(#paint0_linear_75_411)"/>
<path d="M27.3067 10.403L16.757 20.9392L12.9837 17.1704L8.79556 21.3526L16.757 29.3052L31.4948 14.5867L27.3067 10.403Z" fill="white"/>
</g>
<defs>
<linearGradient id="paint0_linear_75_411" x1="20" y1="0" x2="20" y2="40" gradientUnits="userSpaceOnUse">
<stop stop-color="#A172FF"/>
<stop offset="1" stop-color="#7B43EF"/>
</linearGradient>
<clipPath id="clip0_75_411">
<rect width="40" height="40" fill="white"/>
</clipPath>
</defs>
</svg>
