<svg id="vuesax_bold_send" data-name="vuesax/bold/send" xmlns="http://www.w3.org/2000/svg" width="34" height="34" viewBox="0 0 34 34">
  <g id="vuesax_bold_send-2">
    <g id="send">
      <path id="Vector" d="M3.338,25.5h0a3.091,3.091,0,0,1-2.85-1.326c-.95-1.538-.505-4.316,1.252-7.824L2.973,13.9a2.571,2.571,0,0,0,0-2.281L1.74,9.15C-.015,5.645-.459,2.867.492,1.327A3.094,3.094,0,0,1,3.344,0,13.722,13.722,0,0,1,9.149,1.741L21.276,7.8c2.631,1.315,4.08,3.071,4.08,4.944s-1.449,3.629-4.08,4.944L9.149,23.756A13.759,13.759,0,0,1,3.338,25.5ZM9.051,11.686a1.065,1.065,0,0,0-1.063,1.063,1.077,1.077,0,0,0,1.063,1.062H16.7a1.063,1.063,0,0,0,0-2.125Z" transform="translate(4.322 4.25)" fill="#000000"/>
      <path id="Vector-2" d="M34,0V34H0V0Z" transform="translate(34 34) rotate(180)" fill="#3fc1c9" opacity="0"/>
    </g>
  </g>
</svg>
