<svg xmlns="http://www.w3.org/2000/svg" width="21.694" height="21.318" viewBox="0 0 21.694 21.318">
  <defs>
    <linearGradient id="linear-gradient" x1="0.172" y1="0.163" x2="0.823" y2="0.846" gradientUnits="objectBoundingBox">
      <stop offset="0" stop-color="#53ddd2"/>
      <stop offset="1" stop-color="#03ccbb"/>
    </linearGradient>
  </defs>
  <g id="svgexport-8_80_" transform="translate(-2.146 -2.25)">
    <circle id="Ellipse_1808" cx="5.193" cy="5.193" r="5.193" transform="translate(13.455 13.182)" fill="#beebe8"/>
    <g id="Group_9998" transform="translate(2.146 2.25)">
      <circle id="Ellipse_1809" cx="5.74" cy="5.74" r="5.74" transform="translate(4.202)" fill="url(#linear-gradient)"/>
      <path id="Path_5705" d="M13.772,22.117a1.421,1.421,0,0,1-.109.164.831.831,0,0,1-.612.262H5.157a3.017,3.017,0,0,1-2.9-3.837A7.565,7.565,0,0,1,9.5,13.24H12.35a.776.776,0,0,1,.623.3,6.8,6.8,0,0,0,.8,8.571Zm6.439-5.586h-.82v-.82a.82.82,0,0,0-1.64,0v.82h-.82a.82.82,0,1,0,0,1.64h.82v.82a.82.82,0,1,0,1.64,0v-.82h.82a.82.82,0,1,0,0-1.64Z" transform="translate(-2.146 -1.225)" fill="url(#linear-gradient)"/>
    </g>
  </g>
</svg>
