<svg xmlns="http://www.w3.org/2000/svg" width="24" height="24" viewBox="0 0 24 24">
  <g id="vuesax_outline_status-up" transform="translate(-236 -252)">
    <g id="status-up">
      <path id="Vector" d="M.877,4.174A.883.883,0,0,1,0,3.3V.877A.883.883,0,0,1,.877,0a.883.883,0,0,1,.877.877V3.3A.876.876,0,0,1,.877,4.174Z" transform="translate(241.138 267.894)" fill="#292d32"/>
      <path id="Vector-2" d="M.877,6.606A.883.883,0,0,1,0,5.729V.877A.883.883,0,0,1,.877,0a.883.883,0,0,1,.877.877V5.729A.876.876,0,0,1,.877,6.606Z" transform="translate(247.124 265.462)" fill="#292d32"/>
      <path id="Vector-3" d="M.877,9.027A.883.883,0,0,1,0,8.15V.877A.883.883,0,0,1,.877,0a.883.883,0,0,1,.877.877V8.15A.868.868,0,0,1,.877,9.027Z" transform="translate(253.111 263.041)" fill="#292d32"/>
      <path id="Vector-4" d="M.88,9.447a.885.885,0,0,1-.854-.666A.874.874,0,0,1,.67,7.717,21.19,21.19,0,0,0,11.649.935L12.186.3A.879.879,0,1,1,13.519,1.45l-.538.631A22.816,22.816,0,0,1,1.09,9.424.647.647,0,0,1,.88,9.447Z" transform="translate(241.135 255.933)" fill="#292d32"/>
      <path id="Vector-5" d="M4.3,5.168a.883.883,0,0,1-.877-.877V1.754H.877A.883.883,0,0,1,0,.877.883.883,0,0,1,.877,0H4.3A.883.883,0,0,1,5.18.877V4.3A.866.866,0,0,1,4.3,5.168Z" transform="translate(249.685 255.932)" fill="#292d32"/>
      <path id="Vector-6" d="M0,0H24V24H0Z" transform="translate(236 252)" fill="none" opacity="0"/>
    </g>
  </g>
</svg>
