<svg id="svgexport-8_61_" data-name="svgexport-8 (61)" xmlns="http://www.w3.org/2000/svg"
    width="32.878" height="31.348" viewBox="0 0 32.878 31.348">
    <defs>
        <linearGradient id="linear-gradient" x1="0.5" x2="0.5" y2="1"
            gradientUnits="objectBoundingBox">
            <stop offset="0" stop-color="#8548d2" />
            <stop offset="1" stop-color="#2b0160" />
        </linearGradient>
        <linearGradient id="linear-gradient-3" x1="0.5" x2="0.5" y2="1"
            gradientUnits="objectBoundingBox">
            <stop offset="0" stop-color="#3e1175" />
            <stop offset="1" stop-color="#0c0f48" />
        </linearGradient>
    </defs>
    <path id="Path_5613"
        d="M6.6,11.4v6.117a1.155,1.155,0,0,1-1.147,1.147H3.926a.336.336,0,0,1-.122-.015A2.684,2.684,0,0,1,1.25,15.985V12.926a2.684,2.684,0,0,1,1.713-2.493,2.228,2.228,0,0,1,.841-.168.336.336,0,0,1,.122-.015H5.455A1.155,1.155,0,0,1,6.6,11.4Z"
        transform="translate(-1.25 3.13)" fill="url(#linear-gradient)" />
    <path id="Path_5614"
        d="M5.808,11.4v6.117a1.155,1.155,0,0,1-1.147,1.147H3.132a.336.336,0,0,1-.122-.015.555.555,0,0,1-.076-.168,2.569,2.569,0,0,1-.184-.963V11.4a2.564,2.564,0,0,1,.26-1.132.336.336,0,0,1,.122-.015H4.662A1.155,1.155,0,0,1,5.808,11.4ZM28.746,22.866a4.2,4.2,0,0,1-4.205,4.205H21.483a1.156,1.156,0,0,1-1.147-1.147,1.075,1.075,0,0,1,.306-.765,1.121,1.121,0,0,1,.841-.382h3.058a1.933,1.933,0,0,0,1.911-1.911,1.144,1.144,0,0,1,2.171-.5A1.116,1.116,0,0,1,28.746,22.866Z"
        transform="translate(-0.456 3.13)" fill="#151050" />
    <path id="Path_5615"
        d="M25.909,15.263a1.529,1.529,0,0,1-1.529-1.529v-.765a8.411,8.411,0,0,0-16.821,0v.765a1.529,1.529,0,0,1-3.058,0v-.765a11.469,11.469,0,1,1,22.938,0v.765A1.529,1.529,0,0,1,25.909,15.263Z"
        transform="translate(0.47 -1.5)" fill="url(#linear-gradient)" />
    <path id="Path_5616"
        d="M17.588,21.294a2.294,2.294,0,0,1-4.588,0,2.118,2.118,0,0,1,.138-.765,2.285,2.285,0,0,1,4.312,0A2.126,2.126,0,0,1,17.588,21.294Z"
        transform="translate(4.968 7.761)" fill="#151050" />
    <path id="Path_5617"
        d="M22.432,18.392a4.341,4.341,0,0,1-1.1,1.942,4.187,4.187,0,0,1-2.982,1.239H15.291a1.121,1.121,0,0,1-.841-.382,1.121,1.121,0,0,1,.841-.382h3.058A1.933,1.933,0,0,0,20.261,18.9a1.144,1.144,0,0,1,2.171-.5Z"
        transform="translate(5.735 7.1)" fill="#5f2ca1" />
    <path id="Path_5618" d="M17.4,20.529a2.285,2.285,0,0,1-4.312,0,2.285,2.285,0,0,1,4.312,0Z"
        transform="translate(5.016 7.761)" fill="#5f2ca1" />
    <path id="Path_5619"
        d="M10.131,11.926v6.117a2.688,2.688,0,0,1-2.676,2.676H5.926a2.684,2.684,0,0,1-2.493-1.713,2.569,2.569,0,0,1-.184-.963V11.926A2.688,2.688,0,0,1,5.926,9.25H7.455a2.569,2.569,0,0,1,.963.184,2.684,2.684,0,0,1,1.713,2.493Z"
        transform="translate(-0.192 2.601)" fill="url(#linear-gradient-3)" />
    <path id="Path_5620"
        d="M8.6,10.4v6.117A2.688,2.688,0,0,1,5.926,19.19H4.4a2.569,2.569,0,0,1-.963-.184,2.569,2.569,0,0,1-.184-.963V11.926A2.688,2.688,0,0,1,5.926,9.25H7.455a2.569,2.569,0,0,1,.963.184A2.569,2.569,0,0,1,8.6,10.4Zm19.115,1.529v6.117a1.155,1.155,0,0,0,1.147,1.147h1.529a.336.336,0,0,0,.122-.015,2.684,2.684,0,0,0,2.554-2.661V13.455a2.684,2.684,0,0,0-1.713-2.493,2.228,2.228,0,0,0-.841-.168.336.336,0,0,0-.122-.015H28.864A1.155,1.155,0,0,0,27.717,11.926Z"
        transform="translate(-0.192 2.601)" fill="url(#linear-gradient)" />
    <path id="Path_5621"
        d="M19.25,11.4v6.117A1.155,1.155,0,0,0,20.4,18.661h1.529a.337.337,0,0,0,.122-.015.555.555,0,0,0,.076-.168,2.569,2.569,0,0,0,.184-.963V11.4a2.564,2.564,0,0,0-.26-1.132.336.336,0,0,0-.122-.015H20.4A1.155,1.155,0,0,0,19.25,11.4Z"
        transform="translate(8.276 3.13)" fill="#151050" />
    <path id="Path_5622"
        d="M16.25,11.926v6.117a2.688,2.688,0,0,0,2.676,2.676h1.529a2.684,2.684,0,0,0,2.493-1.713,2.569,2.569,0,0,0,.184-.963V11.926A2.688,2.688,0,0,0,20.455,9.25H18.926a2.569,2.569,0,0,0-.963.184A2.684,2.684,0,0,0,16.25,11.926Z"
        transform="translate(6.688 2.601)" fill="url(#linear-gradient-3)" />
    <path id="Path_5623"
        d="M17.25,10.4v6.117a2.688,2.688,0,0,0,2.676,2.676h1.529a2.569,2.569,0,0,0,.963-.184,2.569,2.569,0,0,0,.184-.963V11.926A2.688,2.688,0,0,0,19.926,9.25H18.4a2.569,2.569,0,0,0-.963.184,2.569,2.569,0,0,0-.184.963Z"
        transform="translate(7.217 2.601)" fill="url(#linear-gradient)" />
    <g id="Group_9981" transform="translate(12.234 11.851)">
        <path id="Path_5624"
            d="M14.984,11.544H10.4a1.147,1.147,0,0,1,0-2.294h4.588a1.147,1.147,0,0,1,0,2.294Zm1.529,4.588H10.4a1.147,1.147,0,0,1,0-2.294h6.117a1.147,1.147,0,1,1,0,2.294Z"
            transform="translate(-9.25 -9.25)" fill="#ffc84d" />
    </g>
</svg>
