<svg width="40" height="40" viewBox="0 0 40 40" fill="none" xmlns="http://www.w3.org/2000/svg">
<path d="M38.6721 10.9135L22.7269 0.677372C21.9223 0.230336 21.0576 0 20.184 0C19.3104 0 18.4457 0.230336 17.6411 0.677372L1.3267 10.9135C0.183431 11.6351 0 12.6592 0 13.2011C0 13.7431 0.183431 14.7065 1.3267 15.4896L2.6534 16.3325V25.9667C2.23864 26.182 1.88207 26.5547 1.62914 27.0373C1.37622 27.5199 1.2384 28.0906 1.23325 28.6766C1.2385 29.2545 1.37114 29.8181 1.6151 30.2991C1.85906 30.78 2.20388 31.1577 2.60783 31.3864L0.549715 39.9959H6.32317L4.26101 31.3849C4.67153 31.1627 5.02189 30.7837 5.26686 30.2971C5.51183 29.8105 5.64015 29.2386 5.63524 28.6552C5.63034 28.0717 5.49243 27.5037 5.23934 27.0243C4.98625 26.5449 4.62959 26.1763 4.21544 25.966V17.3558L6.64388 18.921V31.4456C6.64726 31.6402 6.69509 31.8291 6.78117 31.9875C8.37647 34.5474 10.393 36.5981 12.6789 37.9853C14.9648 39.3725 17.4604 40.0599 19.9778 39.9959C22.4887 40.0601 24.9778 39.3724 27.2564 37.9849C29.5351 36.5974 31.5435 34.5465 33.1294 31.9875C33.2155 31.8291 33.2633 31.6402 33.2667 31.4456V18.9817L38.6733 15.4896C39.8189 14.7672 40 13.7461 40 13.2011C39.966 12.6938 39.8232 12.2095 39.5882 11.8046C39.3531 11.3997 39.0355 11.0907 38.6721 10.9135ZM31.7993 31.1446C30.3369 33.3733 28.5206 35.1536 26.4782 36.3603C24.4358 37.5669 22.2169 38.1707 19.9778 38.1289C17.7387 38.1707 15.5198 37.5669 13.4774 36.3603C11.435 35.1536 9.61867 33.3733 8.15632 31.1446V19.7647L17.6411 25.7257C18.4365 26.1762 19.2951 26.4019 20.1612 26.3882C21.048 26.4188 21.9276 26.1712 22.7269 25.6658L31.7993 19.8216V31.1446ZM38.029 13.8038L32.533 17.3558C32.4313 17.3454 32.3296 17.3741 32.2401 17.4383C32.1506 17.5025 32.0772 17.5994 32.0288 17.7173L22.0855 24.0391C20.852 24.7016 19.4699 24.7016 18.2364 24.0391L6.00245 16.3347L20.0695 14.1668C20.1642 14.1574 20.2565 14.1232 20.3409 14.0663C20.4254 14.0094 20.5004 13.9309 20.5615 13.8354C20.6226 13.74 20.6686 13.6294 20.6968 13.5103C20.725 13.3912 20.7348 13.2658 20.7257 13.1417C20.7166 13.0175 20.6887 12.8969 20.6436 12.7871C20.5986 12.6773 20.5373 12.5804 20.4634 12.502C20.3895 12.4237 20.3045 12.3656 20.2133 12.331C20.1221 12.2964 20.0265 12.2861 19.9322 12.3006L3.61958 14.8271L1.96986 13.8038C1.75727 13.7096 1.57805 13.5169 1.46571 13.2618C1.46571 13.2019 1.55743 12.9586 1.96986 12.7198L18.2825 2.42306C18.8773 2.09616 19.5166 1.93237 20.1612 1.94172C20.8214 1.92058 21.4774 2.08467 22.0855 2.42306L38.0307 12.6561C38.4431 12.8972 38.5349 13.1375 38.5349 13.258C38.4062 13.4947 38.2323 13.6827 38.0307 13.803L38.029 13.8038Z" fill="#292D32"/>
</svg>
