<svg xmlns="http://www.w3.org/2000/svg" width="24.916" height="24" viewBox="0 0 24.916 24">
  <g id="vuesax_outline_rotate-right" transform="translate(-299.283 -316)">
    <g id="rotate-right" transform="translate(299.283 316)">
      <path id="Vector" d="M10.94,21.87A10.935,10.935,0,0,0,10.94,0,12.13,12.13,0,0,0,7.332.534.873.873,0,0,0,7.843,2.2a10.6,10.6,0,0,1,3.1-.464A9.177,9.177,0,1,1,3.295,5.824a.87.87,0,1,0-1.45-.963,10.932,10.932,0,0,0,9.1,17.008Z" transform="matrix(-0.017, -1, 1, -0.017, 3.05, 22.686)" fill="#292d32"/>
      <path id="Vector-2" d="M.79,5.121a.809.809,0,0,0,.605-.276L4.463,1.321A.8.8,0,1,0,3.263.27L.2,3.794A.8.8,0,0,0,.27,4.919.729.729,0,0,0,.79,5.121Z" transform="matrix(0.07, -0.998, 0.998, 0.07, 0, 16.725)" fill="#292d32"/>
      <path id="Vector-3" d="M4.37,4.211a.8.8,0,0,0,.478-1.444L1.27.156A.8.8,0,0,0,.326,1.44L3.9,4.062A.743.743,0,0,0,4.37,4.211Z" transform="matrix(-0.259, -0.966, 0.966, -0.259, 4.055, 17.083)" fill="#292d32"/>
      <path id="Vector-4" d="M0,0H24V24H0Z" transform="translate(0.717)" fill="none" opacity="0"/>
    </g>
    <g id="rotate-right-2" transform="translate(300 316)">
      <path id="Vector-5" d="M.834,4.395a.836.836,0,0,1-.5-1.507L4.068.163A.832.832,0,0,1,5.054,1.5L1.321,4.239A.776.776,0,0,1,.834,4.395Z" transform="matrix(0.588, -0.809, 0.809, 0.588, 9.185, 10.737)" fill="#292d32"/>
      <path id="Vector-6" d="M0,0H24V24H0Z" fill="none" opacity="0"/>
      <path id="Vector-7" d="M.834,4.395a.836.836,0,0,1-.5-1.507L4.069.163A.832.832,0,1,1,5.055,1.5L1.321,4.24A.776.776,0,0,1,.834,4.395Z" transform="matrix(0.391, 0.921, -0.921, 0.391, 15.446, 10.349)" fill="#292d32"/>
    </g>
  </g>
</svg>
