<svg xmlns="http://www.w3.org/2000/svg" width="24.767" height="28.384" viewBox="0 0 24.767 28.384">
  <g id="svgexport-8_44_" transform="translate(-6.14 -3.533)">
    <path id="Path_5348" d="M36.383,13.954V27.446a.7.7,0,0,1-.347.6L24.347,34.8a.759.759,0,0,1-.347.09V20.007l11.253-6.642a.686.686,0,0,1,.7-.055.775.775,0,0,1,.43.645Z" transform="translate(-5.477 -2.976)" fill="rgba(236,236,23,0.76)"/>
    <path id="Path_5349" d="M18.523,20.012V34.9a.759.759,0,0,1-.347-.09L6.487,28.055a.7.7,0,0,1-.347-.6V13.959a.7.7,0,0,1,.388-.624.762.762,0,0,1,.742.035Z" transform="translate(0 -2.981)" fill="rgba(32,113,206,0.77)"/>
    <path id="Path_5350" d="M30.884,10.929a.705.705,0,0,1-.3.6l-11.648,6.92a.685.685,0,0,1-.79,0L6.5,11.525a.705.705,0,0,1-.3-.6.715.715,0,0,1,.347-.575L18.2,3.621a.724.724,0,0,1,.693,0l11.648,6.733A.715.715,0,0,1,30.884,10.929Z" transform="translate(-0.018)" fill="rgba(0,255,60,0.71)"/>
  </g>
</svg>
